{"glyphs":{"0":{"ha":1099,"x_min":0,"x_max":0,"o":"m 586 -182 b 1064 382 871 -182 1064 19 b 854 886 1064 610 1021 729 b 492 1057 722 1011 668 1057 b 14 493 203 1057 14 825 b 221 -10 14 265 68 135 b 586 -182 347 -129 408 -182 z m 475 -1 b 83 493 208 -1 83 232 b 492 988 83 790 244 988 b 883 493 769 988 883 744 b 475 -1 883 168 721 -1 z m 503 261 b 631 475 586 261 631 342 b 476 726 631 556 601 726 b 336 518 385 726 336 651 b 503 261 336 388 374 261 z "},"1":{"ha":844,"x_min":0,"x_max":0,"o":"m 483 -164 l 642 -164 b 761 -40 713 -164 761 -117 l 761 817 b 668 967 761 865 736 899 b 539 1042 601 1033 576 1042 l 349 1042 b 249 1010 314 1042 278 1032 l 19 839 b -7 692 -29 803 -44 742 l 88 567 b 146 525 104 546 124 531 l 199 456 b 256 414 214 435 233 421 l 254 71 b 326 -75 254 17 269 -15 b 483 -164 403 -151 428 -164 z m 531 17 l 372 17 b 324 71 340 17 324 35 l 326 701 l 322 704 b 193 601 279 668 236 635 b 143 608 174 586 157 589 l 49 733 b 60 783 33 753 42 771 l 290 954 b 349 972 307 967 328 972 l 539 972 b 581 928 567 972 581 957 l 581 71 b 531 17 581 33 563 17 z "},"2":{"ha":1004,"x_min":0,"x_max":0,"o":"m 283 -179 b 853 -136 485 -167 685 -150 b 953 -14 913 -132 951 -81 l 956 151 b 886 278 957 193 938 218 b 814 339 860 308 833 331 l 814 342 b 917 610 874 419 917 507 b 769 899 917 743 876 792 b 360 1056 664 1004 592 1056 b 110 1019 254 1056 167 1043 b 35 906 63 999 35 957 b 47 739 35 853 39 789 b 133 621 51 717 68 683 b 282 546 203 556 232 540 l 285 540 l 226 478 b 92 326 171 419 114 354 b 47 203 61 286 47 244 l 47 54 b 124 -93 47 0 56 -25 b 283 -179 197 -167 225 -182 z m 168 1 b 117 54 135 0 117 17 l 117 203 b 147 283 117 233 128 258 b 369 532 181 326 311 465 b 454 674 419 590 454 631 b 335 750 454 728 392 750 b 165 721 275 750 218 731 b 115 750 138 715 119 725 b 104 906 108 800 104 856 b 138 956 104 929 115 946 b 360 986 183 975 261 986 b 736 721 568 986 736 924 b 451 286 736 549 583 419 l 451 279 b 728 303 544 288 647 297 b 775 263 758 304 775 290 l 772 97 b 736 44 772 68 760 46 b 168 1 568 31 369 14 z "},"3":{"ha":997,"x_min":0,"x_max":0,"o":"m 358 -181 b 760 -89 481 -181 633 -160 b 969 239 899 -11 969 121 b 925 394 969 297 956 349 b 840 451 904 418 863 443 l 840 460 b 919 635 893 508 919 575 b 754 913 919 746 850 815 b 388 1056 654 1015 549 1056 b 115 1014 285 1056 194 1039 b 43 908 71 997 43 958 b 63 729 44 853 50 792 b 160 649 71 683 113 651 l 160 644 b 118 558 128 628 117 596 l 125 422 b 189 329 128 374 153 343 l 189 325 l 171 325 b 50 217 101 325 53 281 l 42 56 b 121 -79 39 13 53 -6 b 256 -178 183 -147 210 -174 b 358 -181 275 -179 311 -181 z m 247 0 b 151 3 201 0 168 1 b 111 51 124 6 110 22 l 119 213 b 171 256 121 240 139 256 b 443 276 224 256 360 254 b 506 333 483 288 506 306 b 407 390 506 385 450 390 b 233 386 354 390 328 389 b 194 425 213 386 196 394 l 188 561 b 225 601 186 588 199 600 b 461 676 375 613 461 624 b 354 742 461 719 410 742 b 175 719 272 742 249 733 b 131 742 153 715 133 724 b 113 910 119 800 114 856 b 138 947 113 929 121 942 b 388 986 211 971 292 986 b 739 731 578 986 739 899 b 642 549 739 649 696 600 l 642 540 b 789 350 740 510 789 433 b 615 83 789 256 731 147 b 247 0 501 19 363 0 z "},"4":{"ha":1129,"x_min":0,"x_max":0,"o":"m 674 -179 l 856 -162 b 958 -46 919 -157 958 -111 l 958 83 l 997 86 b 1099 199 1060 90 1097 135 l 1101 339 b 993 444 1103 404 1053 444 l 990 444 l 990 450 b 958 529 990 483 978 510 l 958 832 b 869 979 958 882 933 919 b 722 1056 800 1047 782 1061 l 414 1028 b 299 953 357 1022 322 1000 b 206 774 268 892 238 833 b 43 444 147 664 89 553 b 28 372 33 425 28 397 l 28 231 b 101 93 28 186 35 158 b 250 15 176 21 204 11 l 447 35 b 519 -90 450 -6 456 -25 b 674 -179 592 -162 619 -185 z m 738 18 l 556 1 b 517 44 532 -1 517 11 l 517 233 l 132 196 b 97 231 110 193 97 204 l 97 372 b 106 415 97 389 101 407 b 360 921 176 579 274 749 b 421 958 375 950 392 956 l 728 986 b 778 943 763 989 778 975 l 778 476 l 888 486 b 921 450 907 488 921 475 l 918 310 b 882 267 918 282 907 268 l 778 258 l 778 65 b 738 18 778 36 765 21 z m 365 433 b 499 449 403 438 461 443 b 517 471 510 450 517 457 l 517 749 b 510 757 517 756 514 757 b 499 749 504 757 501 754 l 357 453 l 357 440 b 365 433 357 436 360 433 z "},"5":{"ha":1006,"x_min":0,"x_max":0,"o":"m 353 -181 b 985 251 628 -181 985 -43 b 824 547 985 388 928 486 l 824 558 b 900 667 872 569 900 610 l 901 833 b 818 972 901 878 882 911 b 667 1054 735 1053 713 1058 l 175 1014 b 65 897 107 1008 67 965 l 51 429 b 128 325 50 375 74 342 l 128 319 b 44 221 79 308 47 271 l 35 56 b 100 -96 31 -8 44 -36 b 250 -178 157 -158 185 -174 b 353 -181 275 -179 300 -181 z m 242 0 b 144 3 192 0 168 1 b 104 51 113 6 103 19 l 114 217 b 157 253 115 239 128 253 b 340 267 196 253 272 257 b 539 356 475 286 539 318 b 350 403 538 404 472 415 b 161 385 267 394 186 385 b 121 426 135 385 119 397 l 135 894 b 181 944 136 928 149 942 l 672 985 b 721 944 703 988 721 974 l 719 778 b 678 736 719 749 704 738 l 397 718 b 386 708 390 718 386 715 l 382 640 b 392 631 382 633 383 629 b 804 363 632 658 804 575 b 242 0 804 121 493 0 z "},"6":{"ha":1061,"x_min":0,"x_max":0,"o":"m 594 -181 b 1054 215 875 -181 1054 -7 b 894 519 1054 364 986 463 b 800 619 869 561 838 593 b 818 772 850 656 863 718 b 611 1024 750 856 663 964 b 533 1061 592 1047 565 1061 b 465 1042 511 1061 486 1054 b 14 433 272 942 14 739 b 197 0 14 208 67 128 b 594 -181 331 -132 406 -181 z m 483 0 b 83 433 233 0 83 169 b 497 981 83 701 315 886 b 533 992 510 988 522 992 b 561 978 543 992 554 988 l 660 847 b 647 786 678 824 671 803 b 372 549 535 711 444 646 l 378 546 b 581 617 431 592 506 617 b 874 326 726 615 874 526 b 483 0 874 143 726 0 z m 488 240 b 610 335 544 240 610 268 b 506 417 610 389 560 417 b 382 325 450 417 382 392 b 488 240 382 271 431 240 z "},"7":{"ha":947,"x_min":0,"x_max":0,"o":"m 322 -131 l 510 -176 b 633 -119 561 -189 613 -176 l 881 557 b 906 661 893 592 906 625 l 906 835 b 829 965 906 874 894 900 b 696 1042 760 1036 743 1042 l 110 1042 b 7 939 49 1042 6 1000 l 11 765 b 81 635 13 721 19 697 b 226 556 143 571 161 554 l 292 557 l 147 119 b 186 -39 128 63 129 33 b 322 -131 235 -100 263 -115 z m 415 1 l 228 49 b 211 92 210 53 206 76 l 440 736 l 436 740 l 115 736 b 81 767 90 736 81 742 l 76 940 b 110 972 76 963 88 972 l 696 972 b 725 946 715 972 725 963 l 725 772 b 706 694 725 746 715 721 l 458 18 b 415 1 450 -3 438 -4 z "},"8":{"ha":1092,"x_min":0,"x_max":0,"o":"m 563 -181 b 1078 197 886 -181 1078 -47 b 990 431 1078 293 1035 378 b 901 504 965 458 938 483 l 901 510 b 979 646 944 538 981 585 b 840 900 976 747 950 785 b 469 1056 735 1011 650 1056 b 53 744 206 1056 53 932 b 100 574 53 683 64 626 b 179 532 108 561 149 532 l 179 528 b 28 286 93 494 28 390 b 171 -29 28 151 64 82 b 563 -181 290 -154 349 -181 z m 451 0 b 97 286 221 0 97 100 b 261 524 97 400 154 483 l 261 529 b 122 744 171 560 122 649 b 469 986 122 890 243 986 b 799 742 683 986 799 900 b 685 564 799 664 758 601 l 685 558 b 897 308 822 529 897 442 b 451 0 897 108 742 0 z m 482 226 b 614 318 558 226 614 263 b 506 403 614 369 574 403 b 379 308 433 403 379 365 b 482 226 379 260 417 226 z m 456 654 b 553 721 511 654 553 681 b 472 785 553 760 522 785 b 372 713 404 785 372 756 b 456 654 372 678 406 654 z "},"9":{"ha":1082,"x_min":0,"x_max":0,"o":"m 519 -192 b 589 -172 542 -192 567 -185 b 1047 442 781 -72 1047 136 b 856 881 1047 660 1004 732 b 467 1056 717 1019 654 1056 b 7 660 186 1056 7 882 b 167 356 7 511 75 413 b 261 256 192 314 224 281 b 233 97 206 218 193 151 b 436 -149 292 17 363 -79 b 519 -192 461 -174 488 -192 z m 413 -6 b 385 8 403 -6 392 -1 l 289 139 b 301 199 272 161 278 183 b 578 438 414 275 510 339 l 572 440 b 369 369 519 394 444 369 b 76 660 224 371 76 460 b 467 986 76 843 224 986 b 867 553 717 986 867 817 b 449 6 867 285 631 100 b 413 -6 436 -1 424 -6 z m 446 589 b 568 683 503 589 568 617 b 464 765 568 738 518 765 b 340 674 408 765 340 740 b 446 589 340 619 389 589 z "}," ":{"ha":250,"x_min":0,"x_max":0,"o":""}," ":{"ha":250,"x_min":0,"x_max":0,"o":""},"A":{"ha":1093,"x_min":0,"x_max":0,"o":"m 229 -168 l 415 -175 b 535 -87 475 -178 519 -146 l 568 36 l 574 36 l 578 18 b 644 -90 588 -22 601 -51 b 804 -172 696 -139 736 -174 l 994 -167 b 1089 -25 1060 -165 1110 -115 l 885 835 b 796 972 871 890 843 928 b 653 1042 746 1017 706 1042 l 368 1042 b 239 944 303 1042 256 1011 l 19 82 b 81 -74 6 29 18 -3 b 229 -168 135 -132 172 -165 z m 303 6 l 121 13 b 86 65 86 14 78 31 l 306 926 b 368 972 315 963 333 972 l 653 972 b 706 931 682 972 699 961 l 910 69 b 881 14 919 31 910 15 l 694 8 b 644 42 665 7 650 18 l 607 188 b 567 214 601 207 589 214 l 426 210 b 390 178 408 210 396 199 l 353 42 b 303 6 346 15 331 4 z m 449 421 l 550 421 b 568 446 564 421 571 431 l 519 719 b 503 729 518 726 511 731 b 492 718 497 728 493 724 l 432 446 b 449 421 429 431 436 421 z "},"a":{"ha":1093,"x_min":0,"x_max":0,"o":"m 229 -168 l 415 -175 b 535 -87 475 -178 519 -146 l 568 36 l 574 36 l 578 18 b 644 -90 588 -22 601 -51 b 804 -172 696 -139 736 -174 l 994 -167 b 1089 -25 1060 -165 1110 -115 l 885 835 b 796 972 871 890 843 928 b 653 1042 746 1017 706 1042 l 368 1042 b 239 944 303 1042 256 1011 l 19 82 b 81 -74 6 29 18 -3 b 229 -168 135 -132 172 -165 z m 303 6 l 121 13 b 86 65 86 14 78 31 l 306 926 b 368 972 315 963 333 972 l 653 972 b 706 931 682 972 699 961 l 910 69 b 881 14 919 31 910 15 l 694 8 b 644 42 665 7 650 18 l 607 188 b 567 214 601 207 589 214 l 426 210 b 390 178 408 210 396 199 l 353 42 b 303 6 346 15 331 4 z m 449 421 l 550 421 b 568 446 564 421 571 431 l 519 719 b 503 729 518 726 511 731 b 492 718 497 728 493 724 l 432 446 b 449 421 429 431 436 421 z "},"B":{"ha":1067,"x_min":0,"x_max":0,"o":"m 311 -181 l 403 -183 b 1039 228 847 -197 1039 38 b 994 375 1039 285 1022 338 b 908 438 975 403 939 425 l 908 442 b 1000 640 957 510 1000 599 b 867 900 1000 738 965 797 b 465 1056 769 1003 672 1056 b 147 986 343 1056 214 1022 b 83 874 100 964 83 921 l 83 46 b 156 -97 83 0 89 -32 b 311 -181 221 -162 251 -179 z m 294 -3 l 203 0 b 153 46 164 1 153 11 l 153 874 b 179 925 153 900 160 915 b 465 986 238 956 354 986 b 819 751 710 986 819 881 b 721 535 819 682 786 606 l 721 529 b 858 339 808 496 858 422 b 294 -3 858 185 693 -15 z m 425 211 b 568 354 471 211 568 264 b 481 429 568 393 549 429 b 432 421 464 429 447 426 b 413 392 418 415 413 406 l 413 236 b 425 211 413 218 414 211 z m 428 558 b 563 697 485 563 563 628 b 478 767 563 736 544 767 b 432 758 461 767 446 764 b 414 731 419 753 414 744 l 414 581 b 428 558 414 564 415 558 z "},"b":{"ha":1067,"x_min":0,"x_max":0,"o":"m 311 -181 l 403 -183 b 1039 228 847 -197 1039 38 b 994 375 1039 285 1022 338 b 908 438 975 403 939 425 l 908 442 b 1000 640 957 510 1000 599 b 867 900 1000 738 965 797 b 465 1056 769 1003 672 1056 b 147 986 343 1056 214 1022 b 83 874 100 964 83 921 l 83 46 b 156 -97 83 0 89 -32 b 311 -181 221 -162 251 -179 z m 294 -3 l 203 0 b 153 46 164 1 153 11 l 153 874 b 179 925 153 900 160 915 b 465 986 238 956 354 986 b 819 751 710 986 819 881 b 721 535 819 682 786 606 l 721 529 b 858 339 808 496 858 422 b 294 -3 858 185 693 -15 z m 425 211 b 568 354 471 211 568 264 b 481 429 568 393 549 429 b 432 421 464 429 447 426 b 413 392 418 415 413 406 l 413 236 b 425 211 413 218 414 211 z m 428 558 b 563 697 485 563 563 628 b 478 767 563 736 544 767 b 432 758 461 767 446 764 b 414 731 419 753 414 744 l 414 581 b 428 558 414 564 415 558 z "},"C":{"ha":1122,"x_min":0,"x_max":0,"o":"m 689 -181 b 1064 -60 844 -181 976 -135 b 1093 90 1110 -22 1121 31 l 1022 243 b 917 364 1003 286 967 314 b 750 401 865 419 814 443 b 600 349 694 365 646 349 b 571 350 589 349 579 349 b 568 386 569 361 568 372 b 719 526 568 478 625 526 b 828 499 757 526 792 517 b 972 560 889 468 947 492 l 1036 732 b 981 897 1063 803 1036 840 b 876 981 924 957 911 961 b 582 1056 800 1025 703 1056 b 49 492 271 1056 49 819 b 253 13 49 293 103 161 b 689 -181 399 -132 494 -181 z m 578 0 b 118 492 310 0 118 206 b 582 986 118 782 310 986 b 842 921 690 986 774 960 b 860 867 865 907 868 890 l 801 701 b 746 678 790 672 771 665 b 606 713 700 700 654 713 b 382 500 475 713 382 635 b 600 276 382 357 471 276 b 789 342 661 276 724 300 b 856 319 817 360 842 351 l 918 172 b 908 104 932 142 931 122 b 578 0 833 40 718 0 z "},"c":{"ha":1122,"x_min":0,"x_max":0,"o":"m 689 -181 b 1064 -60 844 -181 976 -135 b 1093 90 1110 -22 1121 31 l 1022 243 b 917 364 1003 286 967 314 b 750 401 865 419 814 443 b 600 349 694 365 646 349 b 571 350 589 349 579 349 b 568 386 569 361 568 372 b 719 526 568 478 625 526 b 828 499 757 526 792 517 b 972 560 889 468 947 492 l 1036 732 b 981 897 1063 803 1036 840 b 876 981 924 957 911 961 b 582 1056 800 1025 703 1056 b 49 492 271 1056 49 819 b 253 13 49 293 103 161 b 689 -181 399 -132 494 -181 z m 578 0 b 118 492 310 0 118 206 b 582 986 118 782 310 986 b 842 921 690 986 774 960 b 860 867 865 907 868 890 l 801 701 b 746 678 790 672 771 665 b 606 713 700 700 654 713 b 382 500 475 713 382 635 b 600 276 382 357 471 276 b 789 342 661 276 724 300 b 856 319 817 360 842 351 l 918 172 b 908 104 932 142 931 122 b 578 0 833 40 718 0 z "},"D":{"ha":1090,"x_min":0,"x_max":0,"o":"m 300 -181 l 351 -181 b 1076 490 769 -150 1076 106 b 899 854 1076 639 1032 717 b 428 1056 743 1015 638 1056 b 146 994 319 1056 200 1022 b 69 872 103 972 69 938 l 69 46 b 138 -99 69 -6 81 -43 b 300 -181 204 -165 233 -181 z m 238 0 l 189 0 b 139 46 154 0 139 11 l 139 872 b 176 932 139 906 151 919 b 428 986 224 956 331 986 b 896 601 711 986 896 828 b 238 0 896 257 621 29 z m 431 313 b 633 574 556 365 633 468 b 482 735 633 661 582 735 b 419 726 458 735 436 731 b 397 696 403 722 397 715 l 397 335 b 431 313 397 313 413 304 z "},"d":{"ha":1090,"x_min":0,"x_max":0,"o":"m 300 -181 l 351 -181 b 1076 490 769 -150 1076 106 b 899 854 1076 639 1032 717 b 428 1056 743 1015 638 1056 b 146 994 319 1056 200 1022 b 69 872 103 972 69 938 l 69 46 b 138 -99 69 -6 81 -43 b 300 -181 204 -165 233 -181 z m 238 0 l 189 0 b 139 46 154 0 139 11 l 139 872 b 176 932 139 906 151 919 b 428 986 224 956 331 986 b 896 601 711 986 896 828 b 238 0 896 257 621 29 z m 431 313 b 633 574 556 365 633 468 b 482 735 633 661 582 735 b 419 726 458 735 436 731 b 397 696 403 722 397 715 l 397 335 b 431 313 397 313 413 304 z "},"E":{"ha":910,"x_min":0,"x_max":0,"o":"m 304 -179 l 782 -160 b 882 -54 842 -157 882 -115 l 882 121 b 849 204 882 161 876 175 b 771 235 825 231 813 236 l 771 243 b 804 328 793 260 804 294 l 806 488 b 735 575 806 532 779 568 l 735 579 l 757 581 b 857 689 817 585 857 628 l 857 864 b 781 996 857 908 829 940 b 635 1074 733 1050 696 1078 l 189 1043 b 83 932 125 1039 83 996 l 83 40 b 153 -104 83 -11 90 -39 b 304 -179 218 -172 256 -181 z m 668 21 l 190 1 b 153 40 164 0 153 13 l 153 932 b 193 974 153 958 165 972 l 639 1004 b 676 975 665 1006 676 996 l 676 800 b 642 761 676 775 665 763 l 411 743 l 411 610 l 592 624 b 625 599 614 625 625 617 l 624 439 b 592 406 624 418 614 407 l 411 393 l 413 253 l 658 268 b 701 232 688 269 701 258 l 701 57 b 668 21 701 33 690 22 z "},"e":{"ha":910,"x_min":0,"x_max":0,"o":"m 304 -179 l 782 -160 b 882 -54 842 -157 882 -115 l 882 121 b 849 204 882 161 876 175 b 771 235 825 231 813 236 l 771 243 b 804 328 793 260 804 294 l 806 488 b 735 575 806 532 779 568 l 735 579 l 757 581 b 857 689 817 585 857 628 l 857 864 b 781 996 857 908 829 940 b 635 1074 733 1050 696 1078 l 189 1043 b 83 932 125 1039 83 996 l 83 40 b 153 -104 83 -11 90 -39 b 304 -179 218 -172 256 -181 z m 668 21 l 190 1 b 153 40 164 0 153 13 l 153 932 b 193 974 153 958 165 972 l 639 1004 b 676 975 665 1006 676 996 l 676 800 b 642 761 676 775 665 763 l 411 743 l 411 610 l 592 624 b 625 599 614 625 625 617 l 624 439 b 592 406 624 418 614 407 l 411 393 l 413 253 l 658 268 b 701 232 688 269 701 258 l 701 57 b 668 21 701 33 690 22 z "},"F":{"ha":894,"x_min":0,"x_max":0,"o":"m 304 -179 l 499 -169 b 593 -60 556 -167 593 -124 l 592 185 l 722 194 b 811 293 775 199 811 238 l 811 464 b 713 563 811 522 769 563 l 700 563 l 700 568 l 771 574 b 867 681 828 578 867 621 l 867 864 b 789 993 867 903 835 940 b 635 1074 739 1050 696 1078 l 189 1043 b 83 932 125 1039 83 996 l 83 40 b 153 -104 83 -11 90 -39 b 304 -179 218 -172 256 -182 z m 383 11 l 189 1 b 153 40 164 0 153 11 l 153 932 b 193 974 153 958 165 972 l 649 1004 b 686 975 675 1006 686 997 l 686 792 b 654 754 686 768 676 756 l 411 735 l 411 583 l 607 599 b 631 575 624 600 631 593 l 631 404 b 606 375 631 385 622 376 l 411 361 l 413 51 b 383 11 413 25 403 13 z "},"f":{"ha":894,"x_min":0,"x_max":0,"o":"m 304 -179 l 499 -169 b 593 -60 556 -167 593 -124 l 592 185 l 722 194 b 811 293 775 199 811 238 l 811 464 b 713 563 811 522 769 563 l 700 563 l 700 568 l 771 574 b 867 681 828 578 867 621 l 867 864 b 789 993 867 903 835 940 b 635 1074 739 1050 696 1078 l 189 1043 b 83 932 125 1039 83 996 l 83 40 b 153 -104 83 -11 90 -39 b 304 -179 218 -172 256 -182 z m 383 11 l 189 1 b 153 40 164 0 153 11 l 153 932 b 193 974 153 958 165 972 l 649 1004 b 686 975 675 1006 686 997 l 686 792 b 654 754 686 768 676 756 l 411 735 l 411 583 l 607 599 b 631 575 624 600 631 593 l 631 404 b 606 375 631 385 622 376 l 411 361 l 413 51 b 383 11 413 25 403 13 z "},"G":{"ha":1261,"x_min":0,"x_max":0,"o":"m 700 -181 b 1233 435 1004 -181 1233 54 b 1151 572 1233 481 1208 513 b 1010 661 1083 643 1061 661 l 1038 735 b 988 889 1057 786 1029 846 b 876 982 949 929 911 963 b 583 1056 799 1025 703 1056 b 49 492 271 1056 49 819 b 253 24 49 294 101 172 b 700 -181 396 -117 515 -181 z m 589 0 b 118 492 310 0 118 204 b 583 986 118 782 310 986 b 843 921 690 986 774 960 b 861 869 865 908 868 889 l 801 701 b 746 678 790 672 772 665 b 606 713 700 700 654 713 b 383 499 476 713 383 635 b 590 268 383 357 479 269 b 769 399 672 267 750 310 l 654 401 b 615 439 626 401 614 413 l 625 557 b 663 594 626 583 638 594 l 1008 592 b 1053 546 1042 592 1053 579 b 589 0 1053 203 854 0 z "},"g":{"ha":1261,"x_min":0,"x_max":0,"o":"m 700 -181 b 1233 435 1004 -181 1233 54 b 1151 572 1233 481 1208 513 b 1010 661 1083 643 1061 661 l 1038 735 b 988 889 1057 786 1029 846 b 876 982 949 929 911 963 b 583 1056 799 1025 703 1056 b 49 492 271 1056 49 819 b 253 24 49 294 101 172 b 700 -181 396 -117 515 -181 z m 589 0 b 118 492 310 0 118 204 b 583 986 118 782 310 986 b 843 921 690 986 774 960 b 861 869 865 908 868 889 l 801 701 b 746 678 790 672 772 665 b 606 713 700 700 654 713 b 383 499 476 713 383 635 b 590 268 383 357 479 269 b 769 399 672 267 750 310 l 654 401 b 615 439 626 401 614 413 l 625 557 b 663 594 626 583 638 594 l 1008 592 b 1053 546 1042 592 1053 579 b 589 0 1053 203 854 0 z "},"H":{"ha":1164,"x_min":0,"x_max":0,"o":"m 306 -179 l 496 -165 b 594 -53 556 -161 594 -118 l 594 24 l 597 24 b 674 -108 597 -14 606 -39 b 819 -179 728 -167 764 -183 l 1010 -165 b 1108 -53 1069 -161 1108 -118 l 1108 839 b 1032 982 1108 888 1101 918 b 882 1056 958 1049 929 1060 l 700 1042 b 597 936 636 1036 597 996 l 597 867 l 594 867 b 518 990 594 903 564 946 b 368 1056 460 1049 421 1060 l 186 1042 b 83 936 122 1036 83 996 l 83 39 b 157 -103 83 -17 113 -57 b 306 -179 206 -151 246 -183 z m 381 15 l 190 1 b 153 39 164 0 153 13 l 153 936 b 190 972 153 960 164 971 l 374 986 b 414 950 401 989 414 978 l 414 607 l 667 633 l 667 936 b 704 972 667 960 678 971 l 888 986 b 928 950 915 989 928 978 l 928 58 b 894 15 928 31 917 17 l 704 1 b 667 39 678 0 667 13 l 667 379 l 414 351 l 414 58 b 381 15 414 31 403 17 z "},"h":{"ha":1164,"x_min":0,"x_max":0,"o":"m 306 -179 l 496 -165 b 594 -53 556 -161 594 -118 l 594 24 l 597 24 b 674 -108 597 -14 606 -39 b 819 -179 728 -167 764 -183 l 1010 -165 b 1108 -53 1069 -161 1108 -118 l 1108 839 b 1032 982 1108 888 1101 918 b 882 1056 958 1049 929 1060 l 700 1042 b 597 936 636 1036 597 996 l 597 867 l 594 867 b 518 990 594 903 564 946 b 368 1056 460 1049 421 1060 l 186 1042 b 83 936 122 1036 83 996 l 83 39 b 157 -103 83 -17 113 -57 b 306 -179 206 -151 246 -183 z m 381 15 l 190 1 b 153 39 164 0 153 13 l 153 936 b 190 972 153 960 164 971 l 374 986 b 414 950 401 989 414 978 l 414 607 l 667 633 l 667 936 b 704 972 667 960 678 971 l 888 986 b 928 950 915 989 928 978 l 928 58 b 894 15 928 31 917 17 l 704 1 b 667 39 678 0 667 13 l 667 379 l 414 351 l 414 58 b 381 15 414 31 403 17 z "},"I":{"ha":653,"x_min":0,"x_max":0,"o":"m 319 -179 l 499 -165 b 597 -53 558 -161 597 -118 l 597 839 b 521 986 597 918 557 951 b 354 1054 483 1024 447 1061 l 186 1042 b 83 936 122 1038 83 996 l 83 58 b 157 -101 83 -26 111 -54 b 319 -179 204 -149 257 -183 z m 383 15 l 190 1 b 153 39 164 0 153 13 l 153 936 b 190 972 153 960 164 971 l 376 986 b 417 950 404 988 417 978 l 417 58 b 383 15 417 31 406 17 z "},"i":{"ha":653,"x_min":0,"x_max":0,"o":"m 319 -179 l 499 -165 b 597 -53 558 -161 597 -118 l 597 839 b 521 986 597 918 557 951 b 354 1054 483 1024 447 1061 l 186 1042 b 83 936 122 1038 83 996 l 83 58 b 157 -101 83 -26 111 -54 b 319 -179 204 -149 257 -183 z m 383 15 l 190 1 b 153 39 164 0 153 13 l 153 936 b 190 972 153 960 164 971 l 376 986 b 417 950 404 988 417 978 l 417 58 b 383 15 417 31 406 17 z "},"J":{"ha":936,"x_min":0,"x_max":0,"o":"m 460 -181 b 888 336 749 -181 888 -6 l 888 839 b 811 972 888 885 867 917 b 664 1056 740 1043 714 1058 l 249 1028 b 149 918 189 1024 149 981 l 149 747 b 222 614 149 694 165 669 b 372 531 271 565 308 531 l 379 531 l 379 513 b 314 324 379 363 353 324 b 233 342 296 324 272 328 b 96 278 169 363 113 338 l 47 110 b 96 -39 33 61 40 25 b 221 -132 135 -83 193 -121 b 460 -181 308 -164 385 -181 z m 349 0 b 135 44 282 0 215 14 b 114 90 114 53 107 67 l 163 257 b 211 276 169 279 185 285 b 314 254 256 261 288 254 b 449 513 407 254 449 335 l 449 724 l 257 711 b 218 747 231 710 218 721 l 218 918 b 253 958 218 944 229 957 l 668 986 b 707 950 694 988 707 976 l 707 447 b 349 0 707 140 596 0 z "},"j":{"ha":936,"x_min":0,"x_max":0,"o":"m 460 -181 b 888 336 749 -181 888 -6 l 888 839 b 811 972 888 885 867 917 b 664 1056 740 1043 714 1058 l 249 1028 b 149 918 189 1024 149 981 l 149 747 b 222 614 149 694 165 669 b 372 531 271 565 308 531 l 379 531 l 379 513 b 314 324 379 363 353 324 b 233 342 296 324 272 328 b 96 278 169 363 113 338 l 47 110 b 96 -39 33 61 40 25 b 221 -132 135 -83 193 -121 b 460 -181 308 -164 385 -181 z m 349 0 b 135 44 282 0 215 14 b 114 90 114 53 107 67 l 163 257 b 211 276 169 279 185 285 b 314 254 256 261 288 254 b 449 513 407 254 449 335 l 449 724 l 257 711 b 218 747 231 710 218 721 l 218 918 b 253 958 218 944 229 957 l 668 986 b 707 950 694 988 707 976 l 707 447 b 349 0 707 140 596 0 z "},"K":{"ha":1092,"x_min":0,"x_max":0,"o":"m 308 -179 l 494 -164 b 592 -56 551 -160 592 -117 l 592 3 l 789 -156 b 853 -179 807 -171 831 -179 b 931 -139 882 -179 908 -165 l 1051 4 b 1035 160 1092 53 1086 108 b 928 258 981 214 944 244 l 796 368 b 1018 658 853 442 961 582 b 1003 836 1060 714 1056 800 b 733 1014 892 914 832 953 b 585 986 678 1049 622 1038 l 544 931 b 481 1010 536 953 521 969 b 365 1056 438 1053 425 1060 l 186 1042 b 83 936 122 1036 83 996 l 83 39 b 153 -99 83 -18 93 -37 b 308 -179 215 -164 246 -185 z m 378 17 l 190 1 b 153 39 164 -1 153 11 l 153 936 b 190 972 153 960 164 971 l 371 986 b 411 950 399 989 411 978 l 411 640 l 418 640 l 640 946 b 696 956 656 967 674 969 l 840 865 b 851 811 864 850 868 833 l 586 454 l 586 451 l 883 206 b 886 160 900 192 901 179 l 767 17 b 742 1 758 7 750 1 b 721 10 735 1 728 4 l 419 253 l 411 249 l 411 56 b 378 17 411 31 400 18 z "},"k":{"ha":1092,"x_min":0,"x_max":0,"o":"m 308 -179 l 494 -164 b 592 -56 551 -160 592 -117 l 592 3 l 789 -156 b 853 -179 807 -171 831 -179 b 931 -139 882 -179 908 -165 l 1051 4 b 1035 160 1092 53 1086 108 b 928 258 981 214 944 244 l 796 368 b 1018 658 853 442 961 582 b 1003 836 1060 714 1056 800 b 733 1014 892 914 832 953 b 585 986 678 1049 622 1038 l 544 931 b 481 1010 536 953 521 969 b 365 1056 438 1053 425 1060 l 186 1042 b 83 936 122 1036 83 996 l 83 39 b 153 -99 83 -18 93 -37 b 308 -179 215 -164 246 -185 z m 378 17 l 190 1 b 153 39 164 -1 153 11 l 153 936 b 190 972 153 960 164 971 l 371 986 b 411 950 399 989 411 978 l 411 640 l 418 640 l 640 946 b 696 956 656 967 674 969 l 840 865 b 851 811 864 850 868 833 l 586 454 l 586 451 l 883 206 b 886 160 900 192 901 179 l 767 17 b 742 1 758 7 750 1 b 721 10 735 1 728 4 l 419 253 l 411 249 l 411 56 b 378 17 411 31 400 18 z "},"L":{"ha":878,"x_min":0,"x_max":0,"o":"m 319 -179 l 760 -161 b 869 -56 824 -158 867 -117 l 878 114 b 800 272 881 175 847 229 b 644 335 750 318 706 338 l 594 332 l 594 839 b 518 986 594 918 554 951 b 374 1056 483 1021 450 1056 b 186 1042 349 1056 210 1043 b 83 936 122 1038 83 996 l 83 58 b 157 -101 83 -26 111 -54 b 319 -179 204 -149 257 -182 z m 646 19 l 190 0 b 153 39 164 -1 153 13 l 153 936 b 190 972 153 960 164 971 l 375 986 b 414 950 403 989 414 978 l 414 254 l 647 265 b 697 228 683 267 699 256 l 689 60 b 646 19 688 33 674 21 z "},"l":{"ha":878,"x_min":0,"x_max":0,"o":"m 319 -179 l 760 -161 b 869 -56 824 -158 867 -117 l 878 114 b 800 272 881 175 847 229 b 644 335 750 318 706 338 l 594 332 l 594 839 b 518 986 594 918 554 951 b 374 1056 483 1021 450 1056 b 186 1042 349 1056 210 1043 b 83 936 122 1038 83 996 l 83 58 b 157 -101 83 -26 111 -54 b 319 -179 204 -149 257 -182 z m 646 19 l 190 0 b 153 39 164 -1 153 13 l 153 936 b 190 972 153 960 164 971 l 375 986 b 414 950 403 989 414 978 l 414 254 l 647 265 b 697 228 683 267 699 256 l 689 60 b 646 19 688 33 674 21 z "},"M":{"ha":1376,"x_min":0,"x_max":0,"o":"m 232 -168 l 432 -168 b 532 -87 479 -168 522 -135 l 550 0 l 558 0 l 567 -39 b 668 -111 575 -81 624 -111 l 813 -111 b 906 -43 854 -111 892 -85 b 963 -56 922 -53 942 -56 l 964 -56 l 969 -87 b 1074 -167 978 -136 1024 -169 l 1272 -156 b 1361 -43 1331 -153 1369 -99 l 1228 846 b 1149 972 1221 894 1210 914 b 1011 1042 1082 1036 1049 1044 l 817 1028 b 724 957 774 1025 738 997 l 689 853 l 685 853 b 599 979 669 897 658 926 b 472 1042 531 1039 517 1044 l 278 1028 b 183 942 231 1025 192 989 l 24 61 b 90 -87 15 17 24 -17 b 232 -168 146 -147 178 -168 z m 321 13 l 121 13 b 92 49 101 13 89 31 l 251 929 b 283 958 254 947 268 957 l 478 972 b 510 950 492 974 506 964 l 642 533 l 656 533 l 790 936 b 822 958 794 950 808 957 l 1017 972 b 1049 946 1032 974 1046 961 l 1182 57 b 1157 25 1185 42 1174 26 l 958 14 b 926 36 943 13 929 22 l 853 460 l 839 460 l 728 89 b 701 69 724 76 713 69 l 557 69 b 529 89 544 69 532 78 l 440 460 l 426 460 l 350 36 b 321 13 347 22 335 13 z "},"m":{"ha":1376,"x_min":0,"x_max":0,"o":"m 232 -168 l 432 -168 b 532 -87 479 -168 522 -135 l 550 0 l 558 0 l 567 -39 b 668 -111 575 -81 624 -111 l 813 -111 b 906 -43 854 -111 892 -85 b 963 -56 922 -53 942 -56 l 964 -56 l 969 -87 b 1074 -167 978 -136 1024 -169 l 1272 -156 b 1361 -43 1331 -153 1369 -99 l 1228 846 b 1149 972 1221 894 1210 914 b 1011 1042 1082 1036 1049 1044 l 817 1028 b 724 957 774 1025 738 997 l 689 853 l 685 853 b 599 979 669 897 658 926 b 472 1042 531 1039 517 1044 l 278 1028 b 183 942 231 1025 192 989 l 24 61 b 90 -87 15 17 24 -17 b 232 -168 146 -147 178 -168 z m 321 13 l 121 13 b 92 49 101 13 89 31 l 251 929 b 283 958 254 947 268 957 l 478 972 b 510 950 492 974 506 964 l 642 533 l 656 533 l 790 936 b 822 958 794 950 808 957 l 1017 972 b 1049 946 1032 974 1046 961 l 1182 57 b 1157 25 1185 42 1174 26 l 958 14 b 926 36 943 13 929 22 l 853 460 l 839 460 l 728 89 b 701 69 724 76 713 69 l 557 69 b 529 89 544 69 532 78 l 440 460 l 426 460 l 350 36 b 321 13 347 22 335 13 z "},"N":{"ha":1217,"x_min":0,"x_max":0,"o":"m 303 -178 l 499 -165 b 594 -60 556 -161 594 -119 l 594 110 l 660 6 b 761 -110 676 -22 697 -50 b 889 -156 797 -143 835 -160 l 1057 -142 b 1147 -36 1111 -137 1147 -94 l 1147 843 b 1064 978 1147 890 1121 922 b 926 1054 1000 1042 976 1058 l 740 1040 b 639 929 679 1036 639 993 l 639 810 l 636 810 l 568 917 b 492 1014 542 958 533 971 b 363 1053 451 1056 418 1058 l 176 1036 b 83 932 121 1031 83 990 l 83 36 b 158 -94 83 -31 114 -50 b 303 -178 206 -144 242 -182 z m 383 15 l 188 3 b 153 36 164 1 153 13 l 153 932 b 182 967 153 954 163 965 l 368 983 b 417 964 390 985 408 978 l 697 538 l 708 540 l 708 929 b 744 971 708 956 719 969 l 931 985 b 967 954 956 986 967 976 l 967 75 b 940 39 967 53 958 40 l 771 25 b 719 42 744 22 729 25 l 425 508 l 414 506 l 414 51 b 383 15 414 28 404 17 z "},"n":{"ha":1217,"x_min":0,"x_max":0,"o":"m 303 -178 l 499 -165 b 594 -60 556 -161 594 -119 l 594 110 l 660 6 b 761 -110 676 -22 697 -50 b 889 -156 797 -143 835 -160 l 1057 -142 b 1147 -36 1111 -137 1147 -94 l 1147 843 b 1064 978 1147 890 1121 922 b 926 1054 1000 1042 976 1058 l 740 1040 b 639 929 679 1036 639 993 l 639 810 l 636 810 l 568 917 b 492 1014 542 958 533 971 b 363 1053 451 1056 418 1058 l 176 1036 b 83 932 121 1031 83 990 l 83 36 b 158 -94 83 -31 114 -50 b 303 -178 206 -144 242 -182 z m 383 15 l 188 3 b 153 36 164 1 153 13 l 153 932 b 182 967 153 954 163 965 l 368 983 b 417 964 390 985 408 978 l 697 538 l 708 540 l 708 929 b 744 971 708 956 719 969 l 931 985 b 967 954 956 986 967 976 l 967 75 b 940 39 967 53 958 40 l 771 25 b 719 42 744 22 729 25 l 425 508 l 414 506 l 414 51 b 383 15 414 28 404 17 z "},"Ñ":{"ha":1203,"x_min":0,"x_max":0,"o":"m 303 -178 l 499 -165 b 594 -60 556 -161 594 -119 l 594 110 l 660 6 b 761 -110 676 -22 697 -50 b 889 -156 797 -143 835 -160 l 1057 -142 b 1147 -36 1111 -137 1147 -94 l 1147 843 b 1064 978 1147 890 1121 922 b 1025 1014 1049 993 1036 1004 b 1040 1068 1035 1031 1040 1049 b 1032 1113 1040 1082 1038 1099 l 994 1219 b 907 1342 978 1265 956 1292 b 790 1401 860 1392 835 1401 b 715 1381 764 1401 742 1392 b 635 1358 688 1368 667 1358 b 560 1375 615 1358 593 1365 b 417 1403 521 1388 471 1403 b 204 1331 342 1403 263 1374 b 154 1240 171 1307 154 1276 b 163 1196 154 1226 157 1210 l 200 1089 b 232 1042 207 1069 218 1053 l 176 1036 b 83 932 121 1031 83 990 l 83 36 b 158 -94 83 -31 114 -50 b 303 -178 206 -144 242 -182 z m 383 15 l 188 3 b 153 36 164 1 153 13 l 153 932 b 182 967 153 954 163 965 l 368 983 b 417 964 390 985 408 978 l 697 538 l 708 540 l 708 929 b 744 971 708 956 719 969 l 931 985 b 967 954 956 986 967 976 l 967 75 b 940 39 967 53 958 40 l 771 25 b 719 42 744 22 729 25 l 425 508 l 414 506 l 414 51 b 383 15 414 28 404 17 z m 667 1086 b 449 1131 588 1086 510 1131 b 293 1088 369 1131 328 1088 b 265 1111 281 1088 271 1094 l 228 1218 b 224 1240 225 1226 224 1233 b 246 1275 224 1254 231 1264 b 417 1333 293 1310 357 1333 b 635 1289 499 1333 571 1289 b 790 1332 714 1289 756 1332 b 818 1308 803 1332 813 1325 l 856 1201 b 860 1179 858 1193 860 1186 b 838 1144 860 1165 853 1156 b 667 1086 790 1110 726 1086 z "},"ñ":{"ha":1203,"x_min":0,"x_max":0,"o":"m 303 -178 l 499 -165 b 594 -60 556 -161 594 -119 l 594 110 l 660 6 b 761 -110 676 -22 697 -50 b 889 -156 797 -143 835 -160 l 1057 -142 b 1147 -36 1111 -137 1147 -94 l 1147 843 b 1064 978 1147 890 1121 922 b 1025 1014 1049 993 1036 1004 b 1040 1068 1035 1031 1040 1049 b 1032 1113 1040 1082 1038 1099 l 994 1219 b 907 1342 978 1265 956 1292 b 790 1401 860 1392 835 1401 b 715 1381 764 1401 742 1392 b 635 1358 688 1368 667 1358 b 560 1375 615 1358 593 1365 b 417 1403 521 1388 471 1403 b 204 1331 342 1403 263 1374 b 154 1240 171 1307 154 1276 b 163 1196 154 1226 157 1210 l 200 1089 b 232 1042 207 1069 218 1053 l 176 1036 b 83 932 121 1031 83 990 l 83 36 b 158 -94 83 -31 114 -50 b 303 -178 206 -144 242 -182 z m 383 15 l 188 3 b 153 36 164 1 153 13 l 153 932 b 182 967 153 954 163 965 l 368 983 b 417 964 390 985 408 978 l 697 538 l 708 540 l 708 929 b 744 971 708 956 719 969 l 931 985 b 967 954 956 986 967 976 l 967 75 b 940 39 967 53 958 40 l 771 25 b 719 42 744 22 729 25 l 425 508 l 414 506 l 414 51 b 383 15 414 28 404 17 z m 667 1086 b 449 1131 588 1086 510 1131 b 293 1088 369 1131 328 1088 b 265 1111 281 1088 271 1094 l 228 1218 b 224 1240 225 1226 224 1233 b 246 1275 224 1254 231 1264 b 417 1333 293 1310 357 1333 b 635 1289 499 1333 571 1289 b 790 1332 714 1289 756 1332 b 818 1308 803 1332 813 1325 l 856 1201 b 860 1179 858 1193 860 1186 b 838 1144 860 1165 853 1156 b 667 1086 790 1110 726 1086 z "},"O":{"ha":1258,"x_min":0,"x_max":0,"o":"m 690 -181 b 1231 381 1004 -181 1231 56 b 1013 851 1231 579 1132 732 b 579 1056 897 965 763 1056 b 49 492 271 1056 49 819 b 263 25 49 293 143 143 b 690 -181 376 -87 511 -181 z m 579 0 b 118 492 310 0 118 204 b 579 986 118 782 310 986 b 1050 492 854 986 1050 782 b 579 0 1050 204 854 0 z m 585 276 b 785 499 701 276 785 368 b 585 710 785 622 701 710 b 383 499 467 710 383 622 b 585 276 383 368 467 276 z "},"o":{"ha":1258,"x_min":0,"x_max":0,"o":"m 690 -181 b 1231 381 1004 -181 1231 56 b 1013 851 1231 579 1132 732 b 579 1056 897 965 763 1056 b 49 492 271 1056 49 819 b 263 25 49 293 143 143 b 690 -181 376 -87 511 -181 z m 579 0 b 118 492 310 0 118 204 b 579 986 118 782 310 986 b 1050 492 854 986 1050 782 b 579 0 1050 204 854 0 z m 585 276 b 785 499 701 276 785 368 b 585 710 785 622 701 710 b 383 499 467 710 383 622 b 585 276 383 368 467 276 z "},"P":{"ha":994,"x_min":0,"x_max":0,"o":"m 299 -181 l 496 -167 b 594 -57 554 -162 594 -121 l 594 68 b 994 575 769 163 994 343 b 844 892 994 713 953 778 b 456 1056 717 1026 619 1056 b 149 988 332 1056 213 1021 b 83 874 104 963 83 925 l 83 32 b 154 -101 83 -18 93 -37 b 299 -181 219 -168 249 -185 z m 381 14 l 183 0 b 153 32 163 -1 153 8 l 153 874 b 182 926 153 900 160 914 b 456 986 238 956 344 986 b 814 686 661 986 814 882 b 414 222 814 476 582 304 l 414 54 b 381 14 414 26 403 15 z m 429 485 b 551 690 499 536 551 624 b 465 769 551 735 529 769 b 424 764 442 769 435 768 b 408 740 414 760 408 754 l 408 496 b 429 485 408 481 418 476 z "},"p":{"ha":994,"x_min":0,"x_max":0,"o":"m 299 -181 l 496 -167 b 594 -57 554 -162 594 -121 l 594 68 b 994 575 769 163 994 343 b 844 892 994 713 953 778 b 456 1056 717 1026 619 1056 b 149 988 332 1056 213 1021 b 83 874 104 963 83 925 l 83 32 b 154 -101 83 -18 93 -37 b 299 -181 219 -168 249 -185 z m 381 14 l 183 0 b 153 32 163 -1 153 8 l 153 874 b 182 926 153 900 160 914 b 456 986 238 956 344 986 b 814 686 661 986 814 882 b 414 222 814 476 582 304 l 414 54 b 381 14 414 26 403 15 z m 429 485 b 551 690 499 536 551 624 b 465 769 551 735 529 769 b 424 764 442 769 435 768 b 408 740 414 760 408 754 l 408 496 b 429 485 408 481 418 476 z "},"Q":{"ha":1258,"x_min":0,"x_max":0,"o":"m 929 -328 l 1104 -254 b 1151 -110 1160 -231 1179 -165 b 1093 -1 1133 -74 1114 -37 b 1231 381 1178 96 1231 229 b 1028 856 1231 579 1147 736 b 579 1056 917 967 763 1056 b 49 492 271 1056 49 819 b 253 15 49 282 133 133 b 690 -181 367 -97 511 -181 b 763 -274 703 -210 724 -240 b 929 -328 817 -321 878 -350 z m 965 -79 l 792 -153 b 743 -133 768 -162 757 -158 b 663 7 718 -87 690 -39 b 579 0 636 3 608 0 b 118 492 310 0 118 204 b 579 986 118 782 310 986 b 1050 492 854 986 1050 782 b 896 119 1050 338 990 207 b 978 -29 925 69 954 21 b 965 -79 988 -49 985 -71 z m 585 276 b 785 499 701 276 785 368 b 585 710 785 622 701 710 b 383 499 467 710 383 622 b 585 276 383 368 467 276 z "},"q":{"ha":1258,"x_min":0,"x_max":0,"o":"m 929 -328 l 1104 -254 b 1151 -110 1160 -231 1179 -165 b 1093 -1 1133 -74 1114 -37 b 1231 381 1178 96 1231 229 b 1028 856 1231 579 1147 736 b 579 1056 917 967 763 1056 b 49 492 271 1056 49 819 b 253 15 49 282 133 133 b 690 -181 367 -97 511 -181 b 763 -274 703 -210 724 -240 b 929 -328 817 -321 878 -350 z m 965 -79 l 792 -153 b 743 -133 768 -162 757 -158 b 663 7 718 -87 690 -39 b 579 0 636 3 608 0 b 118 492 310 0 118 204 b 579 986 118 782 310 986 b 1050 492 854 986 1050 782 b 896 119 1050 338 990 207 b 978 -29 925 69 954 21 b 965 -79 988 -49 985 -71 z m 585 276 b 785 499 701 276 785 368 b 585 710 785 622 701 710 b 383 499 467 710 383 622 b 585 276 383 368 467 276 z "},"R":{"ha":1076,"x_min":0,"x_max":0,"o":"m 299 -181 l 496 -167 b 594 -64 554 -162 594 -121 l 594 0 b 618 -19 601 -7 610 -14 b 831 -164 688 -75 764 -128 b 976 -128 888 -194 944 -181 l 1074 32 b 1044 179 1107 88 1088 133 b 924 286 1003 224 968 261 b 856 325 899 300 876 313 l 856 328 b 994 617 935 400 994 481 b 839 892 994 701 951 779 b 456 1056 713 1018 626 1056 b 144 985 331 1056 211 1021 b 83 874 103 960 83 925 l 83 32 b 149 -101 83 -14 96 -46 b 299 -181 210 -167 238 -185 z m 381 14 l 183 0 b 153 32 163 -1 153 8 l 153 874 b 179 925 153 900 160 913 b 456 986 238 956 344 986 b 814 686 693 986 814 856 b 650 390 814 589 763 481 l 650 383 b 890 225 743 311 803 274 b 903 179 911 214 915 200 l 806 19 b 753 8 793 -1 776 -4 b 421 253 644 67 511 172 l 414 250 l 414 47 b 381 14 414 26 403 15 z m 429 485 b 551 690 499 536 551 624 b 465 769 551 735 529 769 b 424 764 442 769 435 768 b 408 740 414 760 408 754 l 408 496 b 429 485 408 481 418 476 z "},"r":{"ha":1076,"x_min":0,"x_max":0,"o":"m 299 -181 l 496 -167 b 594 -64 554 -162 594 -121 l 594 0 b 618 -19 601 -7 610 -14 b 831 -164 688 -75 764 -128 b 976 -128 888 -194 944 -181 l 1074 32 b 1044 179 1107 88 1088 133 b 924 286 1003 224 968 261 b 856 325 899 300 876 313 l 856 328 b 994 617 935 400 994 481 b 839 892 994 701 951 779 b 456 1056 713 1018 626 1056 b 144 985 331 1056 211 1021 b 83 874 103 960 83 925 l 83 32 b 149 -101 83 -14 96 -46 b 299 -181 210 -167 238 -185 z m 381 14 l 183 0 b 153 32 163 -1 153 8 l 153 874 b 179 925 153 900 160 913 b 456 986 238 956 344 986 b 814 686 693 986 814 856 b 650 390 814 589 763 481 l 650 383 b 890 225 743 311 803 274 b 903 179 911 214 915 200 l 806 19 b 753 8 793 -1 776 -4 b 421 253 644 67 511 172 l 414 250 l 414 47 b 381 14 414 26 403 15 z m 429 485 b 551 690 499 536 551 624 b 465 769 551 735 529 769 b 424 764 442 769 435 768 b 408 740 414 760 408 754 l 408 496 b 429 485 408 481 418 476 z "},"S":{"ha":797,"x_min":0,"x_max":0,"o":"m 388 -181 b 769 183 560 -181 772 -47 b 658 460 768 294 724 379 b 589 560 639 485 589 539 b 610 579 589 574 597 579 b 664 568 624 579 642 574 b 763 664 718 554 757 606 l 776 825 b 707 960 781 867 750 913 b 583 1044 665 1006 635 1029 b 424 1058 540 1056 481 1060 b 67 733 189 1056 61 904 b 150 497 68 638 108 560 b 232 354 189 436 232 386 b 193 329 232 335 217 329 b 172 331 186 329 178 331 b 60 236 111 338 65 299 l 43 65 b 106 -65 36 0 63 -18 b 238 -162 147 -112 185 -147 b 388 -181 283 -176 346 -181 z m 276 0 b 146 15 238 0 185 4 b 113 58 121 22 110 35 l 129 229 b 164 261 132 253 142 264 b 203 260 178 260 190 260 b 308 349 271 260 310 292 b 218 518 307 393 263 451 b 136 735 176 583 138 657 b 425 989 132 869 231 986 b 567 976 478 990 528 985 b 596 942 588 971 597 960 l 582 781 b 553 749 581 758 571 749 l 499 750 b 406 678 428 751 407 719 b 493 528 406 628 447 583 b 589 293 551 454 588 385 b 276 0 592 108 417 0 z "},"s":{"ha":797,"x_min":0,"x_max":0,"o":"m 388 -181 b 769 183 560 -181 772 -47 b 658 460 768 294 724 379 b 589 560 639 485 589 539 b 610 579 589 574 597 579 b 664 568 624 579 642 574 b 763 664 718 554 757 606 l 776 825 b 707 960 781 867 750 913 b 583 1044 665 1006 635 1029 b 424 1058 540 1056 481 1060 b 67 733 189 1056 61 904 b 150 497 68 638 108 560 b 232 354 189 436 232 386 b 193 329 232 335 217 329 b 172 331 186 329 178 331 b 60 236 111 338 65 299 l 43 65 b 106 -65 36 0 63 -18 b 238 -162 147 -112 185 -147 b 388 -181 283 -176 346 -181 z m 276 0 b 146 15 238 0 185 4 b 113 58 121 22 110 35 l 129 229 b 164 261 132 253 142 264 b 203 260 178 260 190 260 b 308 349 271 260 310 292 b 218 518 307 393 263 451 b 136 735 176 583 138 657 b 425 989 132 869 231 986 b 567 976 478 990 528 985 b 596 942 588 971 597 960 l 582 781 b 553 749 581 758 571 749 l 499 750 b 406 678 428 751 407 719 b 493 528 406 628 447 583 b 589 293 551 454 588 385 b 276 0 592 108 417 0 z "},"T":{"ha":1076,"x_min":0,"x_max":0,"o":"m 513 -181 l 706 -181 b 808 -75 767 -181 808 -139 l 808 554 l 967 569 b 1063 675 1026 575 1063 617 l 1063 850 b 978 978 1063 892 1047 911 b 842 1058 901 1051 889 1061 l 142 1011 b 42 906 82 1007 42 967 l 42 733 b 111 604 42 685 50 667 b 263 519 186 528 211 515 l 297 522 l 297 49 b 375 -94 297 -7 311 -31 b 513 -181 442 -161 467 -181 z m 594 0 l 401 0 b 367 36 378 0 367 11 l 367 715 l 147 700 b 111 733 122 699 111 708 l 111 906 b 146 942 111 929 122 940 l 846 989 b 882 961 871 990 882 982 l 882 785 b 850 750 882 763 874 753 l 628 729 l 628 36 b 594 0 628 11 617 0 z "},"t":{"ha":1076,"x_min":0,"x_max":0,"o":"m 513 -181 l 706 -181 b 808 -75 767 -181 808 -139 l 808 554 l 967 569 b 1063 675 1026 575 1063 617 l 1063 850 b 978 978 1063 892 1047 911 b 842 1058 901 1051 889 1061 l 142 1011 b 42 906 82 1007 42 967 l 42 733 b 111 604 42 685 50 667 b 263 519 186 528 211 515 l 297 522 l 297 49 b 375 -94 297 -7 311 -31 b 513 -181 442 -161 467 -181 z m 594 0 l 401 0 b 367 36 378 0 367 11 l 367 715 l 147 700 b 111 733 122 699 111 708 l 111 906 b 146 942 111 929 122 940 l 846 989 b 882 961 871 990 882 982 l 882 785 b 850 750 882 763 874 753 l 628 729 l 628 36 b 594 0 628 11 617 0 z "},"U":{"ha":1089,"x_min":0,"x_max":0,"o":"m 613 -181 b 1054 296 910 -181 1056 -19 l 1053 844 b 972 979 1053 896 1019 933 b 832 1056 907 1043 883 1060 l 638 1040 b 542 931 579 1036 542 994 l 542 892 l 538 892 b 457 1001 525 926 510 954 b 331 1056 399 1054 381 1060 l 144 1042 b 42 932 82 1038 42 994 l 42 407 b 204 -19 42 157 88 96 b 613 -181 324 -137 397 -181 z m 501 0 b 111 407 233 0 111 128 l 111 932 b 149 972 111 958 122 971 l 335 986 b 372 953 361 988 372 976 l 372 415 b 492 258 372 299 403 258 b 613 415 582 258 613 299 l 611 931 b 643 971 611 957 621 969 l 836 986 b 872 956 861 988 872 979 l 874 407 b 501 0 875 128 758 0 z "},"u":{"ha":1089,"x_min":0,"x_max":0,"o":"m 613 -181 b 1054 296 910 -181 1056 -19 l 1053 844 b 972 979 1053 896 1019 933 b 832 1056 907 1043 883 1060 l 638 1040 b 542 931 579 1036 542 994 l 542 892 l 538 892 b 457 1001 525 926 510 954 b 331 1056 399 1054 381 1060 l 144 1042 b 42 932 82 1038 42 994 l 42 407 b 204 -19 42 157 88 96 b 613 -181 324 -137 397 -181 z m 501 0 b 111 407 233 0 111 128 l 111 932 b 149 972 111 958 122 971 l 335 986 b 372 953 361 988 372 976 l 372 415 b 492 258 372 299 403 258 b 613 415 582 258 613 299 l 611 931 b 643 971 611 957 621 969 l 836 986 b 872 956 861 988 872 979 l 874 407 b 501 0 875 128 758 0 z "},"V":{"ha":1100,"x_min":0,"x_max":0,"o":"m 471 -178 l 771 -162 b 881 -68 828 -160 868 -125 l 1078 803 b 999 958 1089 850 1042 908 b 885 1035 956 1010 929 1031 l 679 1051 b 567 974 632 1056 578 1031 l 532 793 l 513 864 b 424 989 501 903 468 949 b 288 1053 363 1044 329 1057 l 94 1033 b 4 904 26 1026 -12 969 l 236 22 b 317 -101 250 -32 271 -60 b 471 -178 367 -149 411 -181 z m 656 18 l 357 3 b 303 40 326 1 311 10 l 72 921 b 101 964 67 944 75 961 l 294 983 b 335 957 317 986 329 978 l 496 308 l 514 308 l 635 961 b 674 982 638 978 657 983 l 879 965 b 899 928 894 964 901 943 l 701 60 b 656 18 694 32 682 19 z "},"v":{"ha":1100,"x_min":0,"x_max":0,"o":"m 471 -178 l 771 -162 b 881 -68 828 -160 868 -125 l 1078 803 b 999 958 1089 850 1042 908 b 885 1035 956 1010 929 1031 l 679 1051 b 567 974 632 1056 578 1031 l 532 793 l 513 864 b 424 989 501 903 468 949 b 288 1053 363 1044 329 1057 l 94 1033 b 4 904 26 1026 -12 969 l 236 22 b 317 -101 250 -32 271 -60 b 471 -178 367 -149 411 -181 z m 656 18 l 357 3 b 303 40 326 1 311 10 l 72 921 b 101 964 67 944 75 961 l 294 983 b 335 957 317 986 329 978 l 496 308 l 514 308 l 635 961 b 674 982 638 978 657 983 l 879 965 b 899 928 894 964 901 943 l 701 60 b 656 18 694 32 682 19 z "},"W":{"ha":1440,"x_min":0,"x_max":0,"o":"m 422 -179 l 606 -167 b 719 -83 663 -162 701 -136 l 733 -42 b 801 -117 749 -58 768 -79 b 925 -179 838 -158 872 -183 l 1125 -165 b 1228 -71 1178 -161 1215 -129 l 1417 786 b 1335 942 1429 840 1385 889 b 1213 1028 1292 988 1261 1022 l 1011 1050 b 899 968 954 1057 910 1024 l 871 826 b 849 829 864 828 857 829 l 847 829 l 838 863 b 738 940 824 910 788 940 l 582 940 b 504 907 550 940 524 929 b 422 1003 479 940 458 963 b 300 1053 389 1039 351 1058 l 101 1032 b 10 903 35 1025 -4 969 l 196 24 b 276 -103 206 -25 219 -50 b 422 -179 342 -162 364 -183 z m 490 14 l 307 1 b 264 38 283 0 269 11 l 78 917 b 108 963 72 943 83 960 l 308 983 b 347 958 331 986 343 978 l 440 490 l 460 490 l 549 844 b 582 871 553 863 563 871 l 738 871 b 771 846 756 871 767 863 l 861 490 l 881 490 l 967 954 b 1003 981 971 975 982 983 l 1206 958 b 1238 913 1235 956 1244 942 l 1049 54 b 1010 15 1043 26 1031 17 l 808 1 b 769 28 789 0 775 8 l 671 379 l 656 379 l 543 51 b 490 14 533 25 519 15 z "},"w":{"ha":1440,"x_min":0,"x_max":0,"o":"m 422 -179 l 606 -167 b 719 -83 663 -162 701 -136 l 733 -42 b 801 -117 749 -58 768 -79 b 925 -179 838 -158 872 -183 l 1125 -165 b 1228 -71 1178 -161 1215 -129 l 1417 786 b 1335 942 1429 840 1385 889 b 1213 1028 1292 988 1261 1022 l 1011 1050 b 899 968 954 1057 910 1024 l 871 826 b 849 829 864 828 857 829 l 847 829 l 838 863 b 738 940 824 910 788 940 l 582 940 b 504 907 550 940 524 929 b 422 1003 479 940 458 963 b 300 1053 389 1039 351 1058 l 101 1032 b 10 903 35 1025 -4 969 l 196 24 b 276 -103 206 -25 219 -50 b 422 -179 342 -162 364 -183 z m 490 14 l 307 1 b 264 38 283 0 269 11 l 78 917 b 108 963 72 943 83 960 l 308 983 b 347 958 331 986 343 978 l 440 490 l 460 490 l 549 844 b 582 871 553 863 563 871 l 738 871 b 771 846 756 871 767 863 l 861 490 l 881 490 l 967 954 b 1003 981 971 975 982 983 l 1206 958 b 1238 913 1235 956 1244 942 l 1049 54 b 1010 15 1043 26 1031 17 l 808 1 b 769 28 789 0 775 8 l 671 379 l 656 379 l 543 51 b 490 14 533 25 519 15 z "},"X":{"ha":1144,"x_min":0,"x_max":0,"o":"m 403 -182 b 479 -139 419 -181 446 -182 l 621 38 l 624 38 l 768 -133 b 867 -181 794 -164 831 -181 b 946 -153 894 -181 922 -174 l 1072 -47 b 1119 40 1104 -21 1119 8 b 1092 115 1119 65 1111 92 l 876 378 l 876 383 l 982 499 l 1101 644 b 1131 724 1121 668 1131 696 b 1083 821 1131 760 1114 794 l 838 1026 b 764 1056 814 1046 789 1056 b 672 1007 724 1056 699 1039 l 528 810 l 525 810 l 367 1015 b 286 1061 338 1053 315 1061 b 210 1028 261 1061 236 1050 l 76 917 b 31 828 46 890 31 860 b 58 754 31 803 39 778 l 196 581 b 268 494 228 539 254 510 l 268 492 b 196 404 256 478 228 444 l 57 229 b 28 153 38 204 28 179 b 74 64 28 121 43 90 l 328 -153 b 403 -182 353 -174 378 -183 z m 285 -1 b 253 13 275 -1 264 4 l 118 121 b 97 154 104 132 97 143 b 111 186 97 164 103 175 l 356 488 l 356 496 l 113 797 b 100 828 104 808 100 818 b 121 863 100 839 107 851 l 254 974 b 285 988 265 983 275 988 b 319 965 297 988 308 981 l 519 701 l 528 701 l 728 965 b 761 986 739 979 750 986 b 793 972 771 986 782 982 l 928 864 b 949 828 942 853 949 840 b 936 799 949 818 944 808 l 693 496 l 693 488 l 936 186 b 950 158 944 176 949 167 b 928 121 951 146 944 133 l 792 13 b 761 0 781 4 771 0 b 726 21 749 0 738 7 l 528 276 l 519 276 l 318 19 b 285 -1 307 6 296 -1 z "},"x":{"ha":1144,"x_min":0,"x_max":0,"o":"m 403 -182 b 479 -139 419 -181 446 -182 l 621 38 l 624 38 l 768 -133 b 867 -181 794 -164 831 -181 b 946 -153 894 -181 922 -174 l 1072 -47 b 1119 40 1104 -21 1119 8 b 1092 115 1119 65 1111 92 l 876 378 l 876 383 l 982 499 l 1101 644 b 1131 724 1121 668 1131 696 b 1083 821 1131 760 1114 794 l 838 1026 b 764 1056 814 1046 789 1056 b 672 1007 724 1056 699 1039 l 528 810 l 525 810 l 367 1015 b 286 1061 338 1053 315 1061 b 210 1028 261 1061 236 1050 l 76 917 b 31 828 46 890 31 860 b 58 754 31 803 39 778 l 196 581 b 268 494 228 539 254 510 l 268 492 b 196 404 256 478 228 444 l 57 229 b 28 153 38 204 28 179 b 74 64 28 121 43 90 l 328 -153 b 403 -182 353 -174 378 -183 z m 285 -1 b 253 13 275 -1 264 4 l 118 121 b 97 154 104 132 97 143 b 111 186 97 164 103 175 l 356 488 l 356 496 l 113 797 b 100 828 104 808 100 818 b 121 863 100 839 107 851 l 254 974 b 285 988 265 983 275 988 b 319 965 297 988 308 981 l 519 701 l 528 701 l 728 965 b 761 986 739 979 750 986 b 793 972 771 986 782 982 l 928 864 b 949 828 942 853 949 840 b 936 799 949 818 944 808 l 693 496 l 693 488 l 936 186 b 950 158 944 176 949 167 b 928 121 951 146 944 133 l 792 13 b 761 0 781 4 771 0 b 726 21 749 0 738 7 l 528 276 l 519 276 l 318 19 b 285 -1 307 6 296 -1 z "},"Y":{"ha":1090,"x_min":0,"x_max":0,"o":"m 526 -179 l 717 -165 b 815 -53 776 -161 815 -118 l 817 211 l 1075 742 b 1083 774 1081 753 1083 763 b 1021 892 1083 807 1060 840 b 897 994 965 961 951 978 l 717 1050 b 681 1056 704 1054 692 1056 b 585 986 639 1056 604 1031 l 522 846 b 385 1021 481 907 429 988 b 304 1057 354 1044 333 1057 b 256 1046 290 1057 275 1054 l 79 971 b 14 879 36 953 14 919 b 29 822 14 861 18 842 l 306 321 l 304 39 b 374 -104 304 -24 319 -50 b 526 -179 435 -165 460 -185 z m 601 15 l 411 1 b 374 39 385 0 374 13 l 375 339 l 90 856 b 83 879 85 865 83 872 b 106 907 83 892 90 900 l 282 982 b 303 988 290 985 297 988 b 328 969 315 988 322 981 l 494 632 l 506 632 l 649 960 b 682 986 657 978 667 986 b 697 983 686 986 692 985 l 876 928 b 906 900 896 922 906 913 b 901 883 906 896 904 890 l 636 339 l 635 58 b 601 15 635 31 624 17 z "},"y":{"ha":1090,"x_min":0,"x_max":0,"o":"m 526 -179 l 717 -165 b 815 -53 776 -161 815 -118 l 817 211 l 1075 742 b 1083 774 1081 753 1083 763 b 1021 892 1083 807 1060 840 b 897 994 965 961 951 978 l 717 1050 b 681 1056 704 1054 692 1056 b 585 986 639 1056 604 1031 l 522 846 b 385 1021 481 907 429 988 b 304 1057 354 1044 333 1057 b 256 1046 290 1057 275 1054 l 79 971 b 14 879 36 953 14 919 b 29 822 14 861 18 842 l 306 321 l 304 39 b 374 -104 304 -24 319 -50 b 526 -179 435 -165 460 -185 z m 601 15 l 411 1 b 374 39 385 0 374 13 l 375 339 l 90 856 b 83 879 85 865 83 872 b 106 907 83 892 90 900 l 282 982 b 303 988 290 985 297 988 b 328 969 315 988 322 981 l 494 632 l 506 632 l 649 960 b 682 986 657 978 667 986 b 697 983 686 986 692 985 l 876 928 b 906 900 896 922 906 913 b 901 883 906 896 904 890 l 636 339 l 635 58 b 601 15 635 31 624 17 z "},"Z":{"ha":985,"x_min":0,"x_max":0,"o":"m 214 -181 l 833 -164 b 940 -50 899 -162 939 -118 l 943 142 b 869 268 944 185 925 221 b 739 335 811 319 788 335 l 901 575 b 933 661 922 606 933 635 l 933 856 b 871 988 933 914 924 933 b 724 1053 817 1043 790 1054 l 160 1039 b 56 936 100 1038 58 997 l 50 790 b 124 621 47 708 68 671 b 243 544 181 568 208 553 l 71 301 b 39 203 49 271 40 244 l 35 33 b 89 -104 33 -26 42 -51 b 214 -181 136 -157 169 -182 z m 719 17 l 139 1 b 104 43 114 1 103 14 l 108 200 b 128 261 110 226 113 239 l 456 724 l 450 732 l 151 724 b 119 756 129 724 119 733 l 125 933 b 161 969 126 958 138 969 l 725 983 b 761 946 751 983 763 972 l 753 776 b 733 725 751 758 744 742 l 421 265 l 425 257 l 717 267 b 763 229 749 268 763 256 l 760 61 b 719 17 760 31 747 18 z "},"z":{"ha":985,"x_min":0,"x_max":0,"o":"m 214 -181 l 833 -164 b 940 -50 899 -162 939 -118 l 943 142 b 869 268 944 185 925 221 b 739 335 811 319 788 335 l 901 575 b 933 661 922 606 933 635 l 933 856 b 871 988 933 914 924 933 b 724 1053 817 1043 790 1054 l 160 1039 b 56 936 100 1038 58 997 l 50 790 b 124 621 47 708 68 671 b 243 544 181 568 208 553 l 71 301 b 39 203 49 271 40 244 l 35 33 b 89 -104 33 -26 42 -51 b 214 -181 136 -157 169 -182 z m 719 17 l 139 1 b 104 43 114 1 103 14 l 108 200 b 128 261 110 226 113 239 l 456 724 l 450 732 l 151 724 b 119 756 129 724 119 733 l 125 933 b 161 969 126 958 138 969 l 725 983 b 761 946 751 983 763 972 l 753 776 b 733 725 751 758 744 742 l 421 265 l 425 257 l 717 267 b 763 229 749 268 763 256 l 760 61 b 719 17 760 31 747 18 z "},".":{"ha":590,"x_min":0,"x_max":0,"o":"m 350 -181 b 542 7 492 -181 542 -126 b 449 210 542 110 517 139 b 244 306 372 288 350 306 b 49 121 96 306 50 246 b 128 -82 47 13 60 -10 b 350 -181 206 -162 232 -181 z m 239 0 b 118 119 135 0 117 22 b 244 236 119 211 140 236 b 361 118 343 236 361 211 b 239 0 361 22 340 0 z "},",":{"ha":604,"x_min":0,"x_max":0,"o":"m 257 -401 b 374 -393 289 -404 335 -401 b 478 -312 413 -386 449 -361 b 549 85 565 -167 563 -37 b 454 231 542 135 517 168 b 333 310 401 285 367 306 b 139 286 268 317 199 307 b 58 144 81 264 50 208 l 81 -26 l 54 -146 b 110 -312 39 -215 54 -250 b 257 -401 165 -375 201 -394 z m 156 -221 b 122 -161 131 -217 114 -200 l 151 -29 l 128 154 b 164 221 124 186 136 210 b 325 240 214 239 271 246 b 368 188 349 238 364 219 b 307 -167 382 71 383 -39 b 249 -214 292 -193 274 -210 b 156 -221 217 -221 181 -224 z "},":":{"ha":590,"x_min":0,"x_max":0,"o":"m 350 -181 b 542 7 492 -181 542 -126 b 449 210 542 110 517 139 b 350 290 407 251 382 276 b 542 478 492 290 542 344 b 449 681 542 581 517 610 b 244 776 372 758 350 776 b 49 592 96 776 50 717 b 128 389 47 483 60 461 b 233 306 171 344 197 319 b 49 121 93 303 50 243 b 128 -82 47 13 60 -10 b 350 -181 206 -162 232 -181 z m 239 0 b 118 119 135 0 117 22 b 244 236 119 211 140 236 b 361 118 343 236 361 211 b 239 0 361 22 340 0 z m 239 471 b 118 590 135 471 117 493 b 244 707 119 682 140 707 b 361 589 343 707 361 682 b 239 471 361 493 340 471 z "},";":{"ha":604,"x_min":0,"x_max":0,"o":"m 257 -401 b 374 -393 289 -404 335 -401 b 478 -312 413 -386 449 -361 b 549 85 565 -167 563 -37 b 454 231 542 135 517 168 b 381 293 425 260 401 281 b 546 479 503 299 546 354 b 453 682 546 582 521 611 b 249 778 376 760 354 778 b 53 593 100 778 54 718 b 132 390 51 485 64 463 b 233 308 174 347 200 322 b 139 286 201 304 168 296 b 58 144 81 264 50 208 l 81 -26 l 54 -146 b 110 -312 39 -215 54 -250 b 257 -401 165 -375 201 -394 z m 156 -221 b 122 -161 131 -217 114 -200 l 151 -29 l 128 154 b 164 221 124 186 136 210 b 325 240 214 239 271 246 b 368 188 349 238 364 219 b 307 -167 382 71 383 -39 b 249 -214 292 -193 274 -210 b 156 -221 217 -221 181 -224 z m 243 472 b 122 592 139 472 121 494 b 249 708 124 683 144 708 b 365 590 347 708 365 683 b 243 472 365 494 344 472 z "},"…":{"ha":1193,"x_min":0,"x_max":0,"o":"m 342 -175 b 488 -131 411 -175 458 -161 b 650 -175 531 -167 567 -175 b 796 -131 719 -175 767 -161 b 958 -175 839 -167 875 -175 b 1144 7 1096 -175 1144 -122 b 1054 204 1144 107 1119 135 b 856 297 979 279 958 297 b 701 247 779 297 731 281 b 547 297 657 286 626 297 b 393 247 471 297 422 281 b 239 297 349 286 318 297 b 49 117 94 297 50 239 b 125 -79 47 13 60 -10 b 342 -175 201 -158 226 -175 z m 233 0 b 117 115 132 0 115 22 b 239 229 118 206 138 229 b 353 115 335 229 353 206 b 233 0 353 22 332 0 z m 542 0 b 425 115 440 0 424 22 b 547 229 426 206 446 229 b 661 115 643 229 661 206 b 542 0 661 22 640 0 z m 850 0 b 733 115 749 0 732 22 b 856 229 735 206 754 229 b 969 115 951 229 969 206 b 850 0 969 22 949 0 z "},"?":{"ha":835,"x_min":0,"x_max":0,"o":"m 388 -181 b 579 7 529 -181 579 -126 b 538 144 579 65 563 119 l 538 149 b 793 596 669 276 793 485 b 646 903 793 719 746 806 b 300 1056 549 997 456 1056 b 110 1038 211 1056 144 1047 b 38 919 57 1021 25 972 l 71 772 b 147 664 83 719 101 703 b 244 594 200 621 217 601 l 244 590 l 242 588 b 117 401 203 549 153 489 b 150 276 96 350 110 301 l 150 272 b 86 121 104 250 88 193 b 156 -83 85 13 90 -10 b 388 -181 231 -168 257 -181 z m 276 0 b 156 119 172 0 154 22 b 282 236 157 211 178 236 b 399 118 381 236 399 211 b 276 0 399 22 378 0 z m 382 317 l 206 331 b 181 375 175 333 171 351 b 365 674 247 535 365 572 b 242 775 365 739 321 775 b 183 769 213 775 203 772 b 139 788 172 768 146 760 l 106 935 b 129 971 101 953 113 965 b 300 986 160 979 217 986 b 613 707 513 986 613 851 b 414 339 613 569 474 456 b 382 317 406 325 403 315 z "},"¿":{"ha":835,"x_min":0,"x_max":0,"o":"m 535 -457 b 725 -439 624 -457 690 -449 b 797 -321 778 -422 810 -375 l 764 -174 b 661 -100 750 -110 700 -99 l 653 -61 b 589 6 643 -18 617 -1 l 589 10 b 718 197 628 49 682 110 b 685 318 739 247 722 293 l 685 322 b 749 478 731 351 747 403 b 658 688 750 586 735 611 b 447 779 582 764 564 779 b 256 592 306 779 256 725 b 293 453 256 531 265 483 b 249 404 272 442 260 422 b 174 293 232 369 204 333 b 42 3 115 214 42 118 b 179 -304 42 -111 69 -196 b 535 -457 306 -428 369 -457 z m 424 -276 b 111 3 211 -276 111 -142 b 310 371 111 140 250 254 b 342 393 318 385 321 394 l 518 379 b 543 335 549 376 553 358 b 358 36 476 175 358 138 b 482 -65 358 -29 403 -65 b 540 -60 511 -65 521 -62 b 585 -78 551 -58 578 -50 l 618 -225 b 594 -261 622 -243 611 -256 b 424 -276 564 -269 507 -276 z m 442 474 b 325 592 343 474 325 499 b 447 710 325 688 346 710 b 568 590 551 710 569 688 b 442 474 567 499 546 474 z "},"!":{"ha":610,"x_min":0,"x_max":0,"o":"m 364 -181 b 556 7 506 -181 556 -126 b 488 168 556 88 538 139 l 488 172 b 538 267 514 190 535 224 b 544 417 539 282 542 343 b 567 810 553 561 563 758 b 485 976 572 875 551 904 b 340 1049 436 1029 410 1046 l 178 1054 b 56 929 103 1057 56 1008 l 58 578 l 61 383 b 126 278 63 332 86 294 l 126 274 b 63 121 82 244 64 194 b 143 -85 61 28 64 -6 b 364 -181 232 -176 267 -181 z m 253 0 b 132 119 149 0 131 22 b 258 236 133 211 154 236 b 375 118 357 236 375 211 b 253 0 375 22 354 0 z m 319 336 l 178 336 b 131 383 146 336 131 351 b 125 929 131 426 125 843 b 175 985 125 968 140 986 l 338 979 b 386 926 374 978 389 961 b 357 382 379 847 360 421 b 319 336 356 350 343 336 z "},"¡":{"ha":611,"x_min":0,"x_max":0,"o":"m 268 -451 l 431 -457 b 553 -333 506 -460 553 -412 b 547 214 549 -119 547 51 b 488 317 547 261 522 299 l 488 321 b 556 476 536 350 554 400 b 465 686 557 585 544 608 b 254 778 392 758 371 778 b 63 590 113 778 63 724 b 129 431 63 511 79 460 l 129 426 b 69 328 89 408 74 374 b 61 147 67 278 64 217 b 42 -210 56 43 50 -78 b 113 -360 39 -257 44 -290 b 268 -451 176 -425 213 -450 z m 322 -276 l 160 -271 b 111 -212 125 -269 110 -251 b 139 324 124 6 132 199 b 192 372 142 357 158 372 l 319 372 b 367 325 351 372 367 357 b 372 -222 367 163 368 -10 b 322 -276 372 -261 357 -278 z m 249 472 b 132 590 150 472 132 497 b 254 708 132 686 153 708 b 375 589 358 708 376 686 b 249 472 374 497 353 472 z "},"·":{"ha":542,"x_min":0,"x_max":0,"o":"m 357 194 b 549 382 499 194 549 249 b 456 585 549 485 524 514 b 251 681 379 663 357 681 b 56 496 103 681 57 621 b 135 293 54 388 67 365 b 357 194 213 213 239 194 z m 246 375 b 125 494 142 375 124 397 b 251 611 126 586 147 611 b 368 493 350 611 368 586 b 246 375 368 397 347 375 z "},"•":{"ha":697,"x_min":0,"x_max":0,"o":"m 467 86 b 728 342 660 86 728 160 b 600 618 728 482 693 521 b 322 749 496 724 467 749 b 56 497 119 749 57 667 b 163 221 53 349 71 318 b 467 86 269 110 306 86 z m 315 332 b 150 494 172 332 149 363 b 322 654 151 619 181 654 b 482 493 457 654 482 619 b 315 332 482 363 453 332 z "},"*":{"ha":863,"x_min":0,"x_max":0,"o":"m 453 243 l 553 250 b 644 338 601 253 638 289 b 782 382 699 310 758 329 l 821 471 b 789 597 840 515 833 567 b 815 740 839 632 850 690 l 764 814 b 701 856 747 838 725 850 l 653 925 b 533 961 624 967 575 978 b 431 1053 531 1018 488 1056 l 325 1047 b 235 965 275 1044 240 1011 b 106 922 185 989 132 972 l 58 833 b 88 706 33 786 44 736 b 61 567 40 674 28 615 b 211 374 117 488 151 440 b 347 335 246 335 301 317 b 453 243 353 278 396 239 z m 436 431 l 338 424 b 304 460 315 422 304 435 l 307 569 l 304 571 l 219 515 b 172 524 200 503 185 506 l 119 604 b 129 650 107 624 111 639 l 225 704 l 225 707 l 131 760 b 119 800 114 769 110 783 l 167 889 b 207 901 176 907 190 911 l 306 839 l 308 840 l 303 947 b 329 978 301 967 311 976 l 435 983 b 464 956 454 985 464 975 l 461 840 l 464 839 l 550 893 b 596 885 567 903 583 901 l 647 811 b 636 764 661 792 656 776 l 544 707 l 544 704 l 636 653 b 646 610 653 643 654 628 l 607 521 b 563 513 600 504 582 501 l 465 567 l 463 565 l 465 471 b 436 431 467 446 456 432 z "},"#":{"ha":1397,"x_min":0,"x_max":0,"o":"m 821 -174 l 964 -168 b 1083 -61 1028 -165 1072 -124 l 1097 21 l 1176 21 b 1307 125 1244 21 1296 61 l 1325 232 b 1217 361 1338 303 1293 357 b 1211 400 1217 375 1215 388 l 1218 400 b 1349 504 1286 400 1338 440 l 1367 611 b 1258 740 1379 682 1335 736 b 1218 828 1260 776 1246 807 b 1136 969 1215 881 1199 906 b 997 1047 1071 1036 1042 1050 l 842 1039 b 729 939 782 1036 744 997 l 728 933 b 690 936 717 935 704 936 b 579 1047 694 1003 653 1050 l 426 1040 b 313 939 365 1038 322 1000 l 299 851 l 226 851 b 103 749 163 851 114 811 l 85 642 b 193 511 72 567 119 511 b 199 472 193 497 194 485 l 185 472 b 61 369 121 472 72 432 l 43 261 b 151 132 31 189 78 133 b 178 56 150 101 160 75 b 243 -85 176 7 186 -26 b 404 -172 314 -160 356 -174 l 547 -168 b 667 -61 611 -167 658 -124 l 668 -58 b 706 -62 679 -61 692 -62 b 821 -174 704 -132 751 -176 z m 850 13 l 707 7 b 665 61 672 6 660 24 l 686 201 l 510 201 l 488 60 b 433 13 483 31 464 14 l 290 8 b 249 63 256 7 243 25 l 269 201 l 153 201 b 111 250 121 201 106 218 l 129 357 b 185 403 135 386 154 403 l 300 403 l 328 581 l 194 581 b 153 629 163 581 147 597 l 171 736 b 226 782 176 765 196 782 l 358 782 l 381 929 b 429 971 385 957 403 969 l 582 978 b 621 935 617 979 625 964 l 597 782 l 775 782 l 797 928 b 846 969 801 956 819 968 l 1000 978 b 1038 935 1033 979 1042 964 l 1014 782 l 1139 782 b 1188 735 1176 782 1193 765 l 1169 628 b 1107 581 1164 597 1142 581 l 983 581 l 957 403 l 1097 403 b 1146 356 1135 403 1151 386 l 1128 249 b 1065 201 1122 218 1100 201 l 926 201 l 904 60 b 850 13 900 31 881 14 z m 540 403 l 717 403 l 744 581 l 567 581 z "},"/":{"ha":829,"x_min":0,"x_max":0,"o":"m 261 -357 l 394 -347 b 529 -228 461 -342 510 -301 b 796 844 603 89 686 425 b 722 1017 811 903 794 942 b 563 1103 656 1088 629 1104 l 426 1100 b 292 992 357 1099 310 1057 b 224 733 276 935 254 844 b 15 -85 167 514 88 211 b 81 -268 -3 -153 1 -181 b 261 -357 147 -342 174 -364 z m 278 -167 l 144 -176 b 82 -101 88 -181 68 -157 b 358 974 193 346 317 808 b 429 1031 368 1010 390 1029 l 564 1033 b 618 974 613 1035 629 1017 b 350 -100 508 554 424 217 b 278 -167 339 -143 317 -164 z "},"\\":{"ha":811,"x_min":0,"x_max":0,"o":"m 511 -335 l 633 -349 b 772 -200 732 -360 792 -294 b 611 542 761 -156 675 243 b 540 874 574 719 543 861 b 443 1022 525 935 497 971 b 296 1096 378 1085 357 1093 l 171 1101 b 46 956 81 1106 26 1040 b 264 -103 121 567 168 336 b 351 -243 278 -162 293 -183 b 511 -335 421 -315 443 -326 z m 531 -168 l 407 -154 b 332 -87 367 -150 340 -126 b 114 969 236 351 189 581 b 168 1032 104 1011 124 1033 l 293 1026 b 361 968 332 1025 351 1007 b 593 -104 371 925 575 -26 b 531 -168 603 -151 581 -174 z "},"(":{"ha":697,"x_min":0,"x_max":0,"o":"m 513 -329 l 586 -304 b 649 -151 651 -282 676 -219 b 531 379 576 19 531 181 b 649 910 531 578 576 739 b 600 1082 674 968 668 1007 b 474 1175 547 1140 521 1161 l 400 1197 b 260 1154 347 1213 296 1200 b 42 490 119 976 42 769 b 260 -174 42 211 119 4 b 513 -329 368 -314 433 -354 z m 453 -128 l 379 -151 b 314 -131 354 -160 332 -153 b 111 490 183 36 111 226 b 314 1111 111 754 183 944 b 379 1132 332 1133 354 1140 l 453 1108 b 474 1047 479 1100 486 1078 b 350 490 399 872 350 700 b 474 -67 350 281 399 108 b 453 -128 486 -97 479 -119 z "},")":{"ha":696,"x_min":0,"x_max":0,"o":"m 221 -304 l 294 -329 b 436 -285 347 -347 400 -331 b 654 379 576 -107 654 99 b 436 1043 654 660 575 864 b 183 1197 332 1178 271 1224 l 111 1175 b 47 1021 46 1154 19 1090 b 165 490 119 850 165 689 b 47 -40 165 292 119 131 b 76 -199 28 -85 28 -126 b 221 -304 118 -257 156 -282 z m 206 -151 l 132 -128 b 111 -67 106 -119 99 -97 b 235 490 186 108 235 281 b 111 1047 235 700 186 872 b 132 1108 99 1078 106 1100 l 206 1132 b 271 1111 231 1140 253 1133 b 474 490 401 944 474 754 b 271 -131 474 226 401 36 b 206 -151 253 -153 231 -160 z "},"{":{"ha":818,"x_min":0,"x_max":0,"o":"m 381 -304 l 646 -342 b 776 -232 722 -353 776 -304 l 776 -131 b 713 14 776 -83 768 -44 b 626 85 665 63 654 74 l 622 257 b 561 376 621 308 597 363 l 561 381 b 622 496 611 418 621 456 l 629 744 l 682 753 b 776 883 746 763 776 815 l 776 985 b 692 1126 776 1038 761 1060 b 535 1206 610 1206 588 1214 l 269 1167 b 147 1029 197 1156 150 1103 l 135 607 l 83 567 b 42 488 58 547 42 518 b 83 408 42 457 58 428 l 138 367 b 135 365 136 367 135 367 l 135 364 l 147 -54 b 222 -208 150 -125 165 -150 b 381 -304 292 -279 317 -294 z m 544 -161 l 279 -124 b 217 -51 240 -118 218 -92 l 204 365 b 179 422 204 386 197 410 l 124 464 b 111 488 115 469 111 479 b 124 511 111 496 115 506 l 179 553 b 204 610 197 565 204 589 l 217 1026 b 279 1099 218 1067 240 1093 l 544 1136 b 596 1096 578 1140 596 1126 l 596 994 b 560 932 596 956 585 936 l 496 922 b 449 864 467 918 450 897 l 442 608 b 421 553 442 585 435 565 l 378 511 b 365 488 369 504 365 496 b 378 464 365 481 369 472 l 421 422 b 442 367 435 410 442 390 l 449 111 b 496 53 450 78 467 57 l 560 43 b 596 -19 585 39 596 19 l 596 -121 b 544 -161 596 -151 578 -165 z "},"}":{"ha":818,"x_min":0,"x_max":0,"o":"m 283 -342 l 549 -304 b 671 -165 621 -294 668 -239 l 683 258 l 735 296 b 776 376 761 315 776 346 b 735 457 776 407 761 438 l 681 497 b 683 499 679 499 683 497 l 683 500 l 671 918 b 581 1078 668 989 653 1006 b 438 1167 519 1140 501 1157 l 172 1206 b 42 1096 96 1217 42 1168 l 42 994 b 136 864 42 926 72 874 l 154 861 b 192 779 158 826 169 799 l 196 607 b 254 488 197 560 210 525 l 254 483 b 196 368 224 463 197 432 l 189 119 l 136 111 b 42 -19 72 101 42 49 l 42 -121 b 111 -267 42 -187 49 -206 b 283 -342 186 -339 207 -353 z m 428 -124 l 163 -161 b 111 -121 129 -165 111 -151 l 111 -19 b 147 43 111 19 122 39 l 211 53 b 258 111 240 57 257 78 l 265 367 b 286 422 265 390 272 410 l 329 464 b 342 488 338 472 342 481 b 329 511 342 496 338 504 l 286 553 b 265 608 272 565 265 585 l 258 864 b 211 922 257 897 240 918 l 147 932 b 111 994 122 936 111 956 l 111 1096 b 163 1136 111 1126 129 1140 l 428 1099 b 490 1026 467 1093 489 1067 l 503 610 b 528 553 503 589 510 565 l 583 511 b 596 488 592 506 596 496 b 583 464 596 479 592 469 l 528 422 b 503 365 510 410 503 386 l 490 -51 b 428 -124 489 -92 467 -118 z "},"[":{"ha":790,"x_min":0,"x_max":0,"o":"m 301 -299 l 619 -339 b 749 -229 694 -349 749 -301 l 749 -96 b 672 39 749 -65 740 -33 b 546 128 601 115 574 122 b 550 729 540 329 542 522 l 642 739 b 749 854 707 746 749 792 l 749 988 b 665 1136 749 1044 732 1074 b 508 1208 597 1201 568 1217 l 190 1167 b 69 1029 117 1157 72 1104 b 69 -49 50 603 50 392 b 154 -211 72 -104 79 -136 b 301 -299 221 -278 244 -292 z m 517 -158 l 200 -118 b 139 -46 160 -112 140 -87 b 139 1026 119 393 119 601 b 200 1099 140 1068 160 1093 l 517 1139 b 568 1099 550 1143 568 1129 l 568 965 b 524 919 568 939 553 922 l 432 910 b 369 844 388 906 371 889 b 369 136 360 601 360 376 b 432 71 371 92 388 75 l 524 61 b 568 15 553 58 568 42 l 568 -118 b 517 -158 568 -149 550 -162 z "},"]":{"ha":790,"x_min":0,"x_max":0,"o":"m 282 -339 l 600 -299 b 721 -160 674 -289 718 -235 b 721 918 740 281 740 492 b 635 1083 718 981 701 1019 b 488 1167 575 1143 540 1160 l 171 1208 b 42 1099 96 1218 42 1171 l 42 965 b 114 822 42 910 56 881 b 244 742 169 767 200 750 b 240 140 250 538 249 346 l 149 131 b 42 15 83 124 42 78 l 42 -118 b 119 -268 42 -181 57 -208 b 282 -339 196 -339 217 -347 z m 479 -118 l 163 -158 b 111 -118 129 -162 111 -149 l 111 15 b 156 61 111 42 126 58 l 247 71 b 310 136 292 75 308 92 b 310 844 319 376 319 601 b 247 910 308 889 292 906 l 156 919 b 111 965 126 922 111 939 l 111 1099 b 163 1139 111 1129 129 1143 l 479 1099 b 540 1026 519 1093 539 1068 b 540 -46 560 601 560 393 b 479 -118 539 -87 519 -112 z "},"-":{"ha":846,"x_min":0,"x_max":0,"o":"m 256 168 l 724 188 b 818 289 783 190 818 236 l 817 461 b 742 601 817 511 797 544 b 611 671 685 660 663 672 l 135 653 b 42 560 79 650 40 613 l 46 376 b 111 239 47 314 54 297 b 256 168 175 175 203 165 z m 608 368 l 143 349 b 115 378 129 349 115 354 l 111 561 b 136 583 111 575 118 583 l 613 601 b 636 572 628 601 636 588 l 638 400 b 608 368 638 385 632 369 z "},"–":{"ha":1068,"x_min":0,"x_max":0,"o":"m 256 168 l 943 188 b 1040 289 1004 189 1040 235 l 1039 461 b 963 601 1039 515 1028 539 b 833 671 899 664 871 672 l 135 653 b 42 560 79 651 40 613 l 46 376 b 111 247 47 329 56 301 b 256 168 175 186 203 167 z m 831 368 l 143 349 b 115 378 129 349 115 354 l 111 561 b 136 583 111 575 118 583 l 835 601 b 858 572 850 601 858 588 l 860 400 b 831 368 860 385 854 368 z "},"—":{"ha":1297,"x_min":0,"x_max":0,"o":"m 256 168 l 1172 188 b 1269 289 1233 189 1269 235 l 1268 461 b 1186 599 1268 507 1249 538 b 1063 671 1126 658 1103 672 l 135 653 b 42 560 79 651 40 614 l 46 376 b 118 251 47 335 57 315 b 256 168 183 183 207 167 z m 1060 368 l 143 349 b 115 378 129 349 115 354 l 111 561 b 136 583 111 575 118 583 l 1064 601 b 1088 572 1079 601 1088 588 l 1089 400 b 1060 368 1089 385 1083 368 z "},"_":{"ha":1013,"x_min":0,"x_max":0,"o":"m 256 -206 l 889 -186 b 985 -85 946 -185 985 -143 l 983 88 b 908 228 983 136 960 172 b 778 297 857 282 821 299 l 135 279 b 42 186 81 278 40 240 l 46 3 b 106 -135 47 -56 50 -79 b 256 -206 171 -199 197 -207 z m 775 -6 l 143 -25 b 115 4 124 -25 115 -15 l 111 188 b 136 210 111 203 119 210 l 779 228 b 803 199 796 228 803 218 l 804 26 b 775 -6 804 6 794 -6 z "},"'":{"ha":604,"x_min":0,"x_max":0,"o":"m 257 342 b 374 350 289 339 335 342 b 478 431 413 357 449 382 b 549 828 565 576 563 706 b 454 974 542 878 517 911 b 333 1053 401 1028 367 1049 b 139 1029 268 1060 199 1050 b 58 888 81 1007 50 951 l 81 717 l 54 597 b 110 431 39 528 54 493 b 257 342 165 368 201 349 z m 156 522 b 122 582 131 526 114 543 l 151 714 l 128 897 b 164 964 124 929 136 953 b 325 983 214 982 271 989 b 368 931 349 981 364 963 b 307 576 382 814 383 704 b 249 529 292 550 274 533 b 156 522 217 522 181 519 z "},"”":{"ha":961,"x_min":0,"x_max":0,"o":"m 257 346 b 374 354 289 342 335 346 b 481 435 413 361 453 386 b 494 460 486 443 490 451 b 515 457 500 458 510 457 b 613 346 515 396 557 354 b 729 354 644 343 690 346 b 833 435 768 361 806 386 b 904 832 921 581 919 711 b 821 981 896 896 883 914 b 689 1057 764 1040 743 1050 b 494 1033 624 1065 554 1054 b 429 978 465 1021 443 1001 b 333 1057 413 1022 378 1051 b 139 1033 268 1064 199 1054 b 58 892 81 1011 50 956 l 81 721 l 54 601 b 117 432 39 529 54 499 b 257 346 175 371 203 356 z m 156 526 b 122 586 131 531 114 547 l 151 718 l 128 901 b 164 968 124 933 136 957 b 325 988 214 986 271 993 b 368 935 349 985 364 967 b 307 581 382 818 383 708 b 249 533 292 554 274 538 b 156 526 217 526 181 524 z m 511 526 b 478 586 486 531 469 547 l 507 718 l 483 901 b 519 968 479 933 492 957 b 681 988 569 986 626 993 b 724 935 704 985 719 967 b 663 581 738 818 739 708 b 604 533 647 554 629 538 b 511 526 572 526 536 524 z "},"“":{"ha":947,"x_min":0,"x_max":0,"o":"m 268 329 b 461 353 332 324 401 332 b 526 410 490 365 513 385 b 624 329 543 364 578 335 b 817 353 688 324 757 332 b 897 493 874 375 906 431 l 875 665 l 901 785 b 832 958 915 850 900 883 b 699 1039 775 1022 753 1033 b 582 1032 667 1043 621 1040 b 476 951 543 1025 504 1000 b 463 926 471 943 467 935 b 443 929 457 928 450 929 b 343 1039 442 990 397 1032 b 226 1032 311 1043 265 1040 b 122 951 188 1025 150 1000 b 51 554 35 806 33 676 b 121 410 61 488 67 468 b 268 329 185 343 213 335 z m 164 510 b 121 563 140 513 125 531 b 182 917 107 679 106 789 b 240 964 197 943 215 960 b 333 971 272 971 308 974 b 367 911 358 967 375 950 l 338 779 l 361 596 b 325 529 365 564 353 540 b 164 510 275 511 218 504 z m 519 510 b 476 563 496 513 481 531 b 538 917 463 679 461 789 b 596 964 553 943 571 960 b 689 971 628 971 664 974 b 722 911 714 967 731 950 l 693 779 l 717 596 b 681 529 721 564 708 540 b 519 510 631 511 574 504 z "},"«":{"ha":1224,"x_min":0,"x_max":0,"o":"m 217 175 l 499 -50 b 642 -40 543 -86 604 -85 l 715 47 b 742 114 733 68 742 90 l 946 -50 b 1089 -40 990 -86 1051 -85 l 1163 47 b 1144 215 1203 96 1196 172 b 1033 306 1101 251 1051 292 l 985 344 b 1021 371 996 351 1008 361 l 1135 464 b 1153 611 1186 506 1193 563 l 1079 699 b 979 815 1071 710 989 806 b 835 825 942 860 879 861 l 650 678 l 600 735 l 532 815 b 388 825 494 860 432 861 l 113 606 b 46 514 85 583 53 557 b 46 381 40 475 39 425 b 217 175 57 313 150 229 z m 431 115 l 150 340 b 114 392 140 349 118 367 b 115 504 108 429 110 469 b 156 551 118 524 143 542 l 431 771 b 478 771 446 783 465 786 l 551 683 b 543 635 567 665 564 651 l 308 447 l 308 439 l 543 251 b 551 203 564 235 567 221 l 478 115 b 431 115 465 100 446 103 z m 878 115 l 597 340 b 561 392 588 349 565 367 b 563 504 556 429 557 469 b 603 551 565 524 590 542 l 878 771 b 925 771 893 783 913 786 l 999 683 b 990 635 1014 665 1011 651 l 756 447 l 756 439 l 990 251 b 999 203 1011 235 1014 221 l 925 115 b 878 115 913 100 893 103 z "},"»":{"ha":1224,"x_min":0,"x_max":0,"o":"m 832 -58 l 1125 175 b 1185 269 1150 194 1178 225 b 1183 403 1192 315 1190 364 b 1101 522 1178 446 1139 486 b 1007 606 1063 558 1029 588 l 732 825 b 588 815 688 861 625 860 l 515 728 b 489 663 501 713 489 685 l 285 825 b 140 815 240 861 178 860 l 68 728 b 86 581 28 679 35 622 l 258 443 l 86 306 b 68 158 35 264 28 208 b 250 -43 119 96 169 40 b 396 -50 290 -85 351 -86 l 572 90 l 588 71 b 689 -49 619 31 669 -28 b 832 -58 726 -92 788 -94 z m 194 115 l 121 203 b 129 251 106 221 108 235 l 364 439 l 364 447 l 129 635 b 121 683 108 651 106 665 l 194 771 b 242 771 207 786 226 783 l 517 551 b 557 504 529 542 554 524 b 558 392 563 469 564 429 b 522 340 554 367 532 349 l 242 115 b 194 115 226 103 207 100 z m 642 115 l 568 203 b 576 251 553 221 556 235 l 811 439 l 811 447 l 576 635 b 568 683 556 651 553 665 l 642 771 b 689 771 654 786 674 783 l 964 551 b 1004 504 976 542 1001 524 b 1006 392 1010 469 1011 429 b 969 340 1001 367 979 349 l 689 115 b 642 115 674 103 654 100 z "},"$":{"ha":847,"x_min":0,"x_max":0,"o":"m 447 -333 l 581 -319 b 674 -201 636 -314 675 -271 l 672 -118 b 819 165 764 -60 824 56 b 719 413 815 283 767 358 b 638 529 676 463 639 499 b 717 576 636 567 669 571 b 814 690 789 585 821 625 b 808 733 813 701 810 717 b 790 857 803 775 797 824 b 688 996 785 883 758 924 b 535 1083 622 1061 596 1085 l 533 1097 b 411 1194 526 1161 471 1201 l 289 1179 b 192 1060 228 1172 190 1121 l 194 958 b 85 692 115 897 85 803 b 203 422 86 568 151 482 b 272 335 250 367 272 342 b 246 329 272 331 272 331 b 163 328 221 325 193 326 b 42 222 93 331 44 288 b 44 39 40 174 42 100 b 110 -92 47 -6 64 -47 b 229 -171 165 -149 196 -160 b 303 -271 238 -203 243 -217 b 447 -333 369 -331 396 -339 z m 461 -139 l 329 -153 b 285 -114 300 -156 286 -146 l 279 1 b 154 3 239 -3 199 -1 b 114 43 129 6 115 19 b 111 219 111 101 110 172 b 160 258 113 246 129 260 b 254 260 189 257 224 256 b 342 335 303 264 342 288 b 256 467 342 375 300 415 b 154 692 207 524 156 593 b 265 921 154 800 186 878 l 261 1063 b 297 1110 260 1088 272 1107 l 419 1125 b 464 1090 442 1128 461 1115 l 475 976 b 565 986 497 981 528 986 b 611 954 590 986 606 979 b 633 790 619 911 628 832 b 599 746 636 764 624 749 b 446 651 499 736 446 710 b 544 497 444 596 496 554 b 639 274 590 444 636 376 b 492 35 643 175 579 68 l 493 -90 b 461 -139 493 -124 482 -136 z "},"€":{"ha":1272,"x_min":0,"x_max":0,"o":"m 850 -181 b 1208 -62 992 -181 1106 -142 b 1242 83 1257 -26 1274 29 l 1161 219 b 1082 275 1142 251 1114 271 l 1050 331 b 983 383 1033 360 1010 376 b 1007 440 996 399 1004 418 l 1013 486 b 1010 528 1014 501 1013 515 b 1132 594 1064 515 1111 540 l 1189 744 b 1132 901 1206 790 1201 831 b 1021 993 1072 963 1039 983 b 739 1056 936 1038 843 1056 b 240 710 506 1056 314 919 l 167 710 b 54 614 111 710 63 678 l 49 571 b 60 501 46 544 50 521 b 35 442 47 486 38 467 l 29 399 b 99 247 24 353 33 317 b 244 168 161 181 178 168 l 304 168 b 460 -12 340 115 389 58 b 850 -181 549 -100 678 -181 z m 739 0 b 297 349 526 0 356 146 l 133 349 b 99 389 106 349 94 361 l 104 433 b 147 468 107 457 121 468 l 276 468 b 275 506 275 481 275 493 l 275 521 l 153 521 b 118 561 125 521 114 533 l 124 606 b 167 640 126 629 140 640 l 292 640 b 739 986 343 849 518 986 b 988 932 835 986 914 971 b 1013 881 1013 918 1021 901 l 956 731 b 899 711 946 704 928 699 b 761 744 854 731 808 744 b 560 640 667 744 597 707 l 794 640 b 832 606 822 640 835 629 l 826 561 b 783 521 822 533 808 521 l 529 521 l 529 506 b 531 468 529 493 529 481 l 775 468 b 808 433 800 468 811 457 l 803 389 b 760 349 799 361 785 349 l 567 349 b 757 250 604 285 669 250 b 931 308 817 250 865 265 b 990 294 957 324 975 319 l 1071 158 b 1056 104 1083 138 1078 121 b 739 0 964 33 865 0 z "},"%":{"ha":1335,"x_min":0,"x_max":0,"o":"m 403 -181 l 567 -181 b 706 -85 619 -181 669 -157 l 751 7 b 838 -83 771 -17 803 -47 b 1060 -181 896 -144 949 -181 b 1307 63 1221 -181 1307 -97 b 1190 313 1307 175 1276 226 b 964 424 1103 403 1054 422 b 1149 789 1025 544 1088 667 b 1090 976 1189 869 1167 889 b 939 1056 1035 1042 1013 1056 l 782 1056 b 644 972 722 1056 672 1025 l 589 865 b 488 981 579 879 536 932 b 286 1056 426 1040 375 1056 b 35 807 122 1056 40 971 b 143 569 32 697 64 651 b 376 451 235 475 281 454 b 192 92 317 336 256 215 b 239 -89 161 32 168 -7 b 403 -181 304 -165 344 -181 z m 276 632 b 104 806 154 632 101 685 b 286 986 108 932 161 986 b 456 807 404 986 456 932 b 276 632 456 686 401 632 z m 456 0 l 292 0 b 254 61 251 0 238 28 b 706 940 421 388 579 694 b 782 986 721 969 747 986 l 939 986 b 975 931 978 986 992 965 b 532 57 822 628 664 317 b 456 0 513 17 490 0 z m 949 0 b 775 171 825 0 772 51 b 958 354 781 299 836 354 b 1126 174 1075 354 1126 300 b 949 0 1126 53 1072 0 z "},"@":{"ha":1447,"x_min":0,"x_max":0,"o":"m 772 -260 b 1035 -214 857 -260 947 -244 b 1104 -85 1097 -192 1122 -151 l 1085 -12 b 1065 31 1081 4 1074 19 l 1069 35 b 1097 29 1076 32 1089 29 b 1406 429 1260 29 1406 167 b 1194 899 1406 624 1339 750 b 697 1118 1049 1047 900 1118 b 49 465 400 1118 49 908 b 264 -37 49 246 121 108 b 772 -260 426 -204 574 -258 z m 661 -79 b 118 465 368 -78 118 118 b 697 1049 118 861 428 1049 b 1225 540 996 1049 1225 842 b 986 210 1225 318 1111 210 b 793 343 872 210 815 269 l 790 343 b 600 210 757 269 697 210 b 401 439 465 210 400 325 b 715 774 404 669 553 774 b 857 746 761 774 808 768 b 906 683 888 732 908 714 b 892 522 901 629 899 607 b 969 357 883 429 907 357 b 1069 526 1015 357 1069 394 b 701 901 1069 781 915 901 b 274 476 482 901 274 757 b 657 68 274 214 439 68 b 860 106 721 68 789 81 b 907 82 886 115 900 108 l 925 10 b 900 -37 933 -25 926 -28 b 661 -79 819 -65 739 -79 z m 619 357 b 725 468 683 357 710 421 b 743 597 739 513 742 551 b 731 617 743 608 739 614 b 676 626 710 625 694 626 b 556 450 597 626 556 542 b 619 357 556 404 576 357 z "},"&":{"ha":1325,"x_min":0,"x_max":0,"o":"m 547 -181 b 903 -74 725 -181 826 -129 b 1043 -157 957 -108 1006 -136 b 1113 -181 1068 -172 1089 -181 b 1204 -129 1147 -181 1176 -165 b 1296 17 1228 -97 1274 -24 b 1257 158 1326 69 1310 128 b 1196 196 1238 171 1214 185 l 1196 208 b 1221 240 1204 219 1213 231 b 1194 389 1257 293 1243 351 l 1128 440 b 1085 500 1121 463 1107 483 l 1000 563 b 1008 632 1006 586 1008 608 b 853 910 1007 743 950 803 b 497 1056 765 1007 653 1056 b 78 726 281 1056 76 951 b 165 531 78 650 113 572 l 165 526 b 28 289 100 497 29 400 b 167 -15 26 175 53 88 b 547 -181 294 -131 410 -181 z m 436 0 b 97 288 272 0 94 89 b 264 515 99 376 156 467 l 264 521 b 147 726 188 576 146 647 b 497 986 146 903 307 986 b 828 742 678 986 826 897 b 660 507 829 657 774 567 l 660 500 b 767 424 690 475 729 449 b 857 531 810 468 832 503 b 919 536 875 551 893 556 l 1043 444 b 1053 392 1063 431 1067 413 b 972 292 1031 361 1004 329 b 1111 210 1022 261 1065 238 b 1125 163 1131 199 1136 182 b 1038 24 1103 124 1060 54 b 1001 0 1024 6 1014 0 b 967 14 992 0 981 6 b 789 121 921 40 858 76 b 436 0 708 60 622 0 z m 453 232 b 572 271 496 231 538 242 b 435 369 513 311 476 338 b 365 299 388 360 365 328 b 453 232 365 265 393 233 z m 475 628 b 572 724 524 649 574 685 b 488 782 572 765 529 783 b 414 717 444 781 414 750 b 475 628 414 681 439 657 z "},"©":{"ha":1467,"x_min":0,"x_max":0,"o":"m 800 -260 b 1425 376 1172 -260 1425 -1 b 1192 900 1425 622 1321 771 b 689 1117 1063 1029 946 1117 b 49 488 308 1117 49 863 b 268 -46 49 219 138 85 b 800 -260 400 -179 525 -260 z m 689 -79 b 118 488 346 -79 118 147 b 689 1047 118 824 346 1047 b 1244 488 1022 1047 1244 824 b 689 -79 1244 147 1022 -79 z m 689 63 b 1094 488 932 63 1094 232 b 689 906 1094 739 932 906 b 268 488 436 906 268 739 b 689 63 268 232 436 63 z m 703 165 b 389 488 531 165 389 308 b 703 808 389 665 531 808 b 869 758 764 808 821 790 b 876 732 879 753 881 742 l 826 615 b 790 607 821 601 803 599 b 707 639 768 628 739 639 b 569 488 631 639 569 571 b 707 335 569 403 631 335 b 815 390 750 335 789 356 b 846 393 821 400 838 401 l 938 304 b 938 275 946 296 946 285 b 703 165 882 207 797 165 z "},"®":{"ha":1174,"x_min":0,"x_max":0,"o":"m 646 32 b 1132 501 994 32 1132 335 b 947 926 1132 661 1088 794 b 535 1103 815 1054 731 1103 b 49 613 160 1103 49 775 b 225 211 49 488 86 342 b 646 32 357 88 443 32 z m 535 213 b 118 613 214 213 118 450 b 535 1033 118 757 214 1033 b 951 613 835 1033 951 829 b 535 213 951 471 835 213 z m 535 315 b 838 613 743 315 838 469 b 535 931 838 778 743 931 b 232 613 299 931 232 738 b 535 315 232 479 307 315 z m 488 418 l 399 411 b 385 426 389 410 385 415 l 385 810 b 396 833 385 821 388 826 b 522 861 422 847 471 861 b 685 724 631 861 685 801 b 611 589 685 679 661 631 l 611 586 b 719 514 653 553 681 536 b 725 493 729 508 731 503 l 681 421 b 657 415 675 411 668 410 b 506 526 608 442 547 490 l 503 525 l 503 433 b 488 418 503 424 499 419 z m 510 632 b 565 726 542 656 565 696 b 526 763 565 746 556 763 b 507 760 515 763 513 761 b 500 749 503 757 500 756 l 500 638 b 510 632 500 631 506 629 z "},"™":{"ha":1276,"x_min":0,"x_max":0,"o":"m 382 353 l 479 353 b 553 388 511 353 538 365 b 621 353 568 367 592 353 l 729 353 b 797 388 757 353 782 367 b 836 378 810 382 822 378 l 906 378 b 947 390 921 378 935 382 b 1024 353 964 367 992 351 l 1128 358 b 1206 454 1179 361 1214 406 l 1139 846 b 1040 1001 1129 931 1085 965 b 939 1056 1007 1029 982 1058 l 844 1049 b 769 994 811 1046 782 1028 l 768 993 l 765 1001 b 683 1056 753 1038 718 1058 l 586 1049 b 543 1035 571 1047 556 1043 b 476 1056 526 1050 503 1057 l 150 1035 b 69 949 106 1032 69 1000 l 69 856 b 161 771 69 803 108 768 l 185 772 l 185 549 b 242 422 185 524 188 478 b 382 353 299 364 357 353 z m 368 533 l 271 533 b 254 549 260 533 254 538 l 254 847 l 156 840 b 139 856 143 839 139 844 l 139 949 b 156 965 139 960 143 964 l 482 986 b 499 974 493 988 499 983 l 499 876 b 483 861 499 865 494 863 l 388 853 l 388 549 b 368 533 388 538 382 533 z m 618 533 l 510 533 b 496 550 500 533 494 542 l 576 967 b 590 979 578 975 583 979 l 686 986 b 700 976 692 986 697 983 l 763 807 l 769 807 l 833 969 b 849 979 836 976 842 979 l 943 986 b 957 974 950 986 956 981 l 1026 553 b 1014 539 1028 546 1024 539 l 910 533 b 893 543 901 533 894 538 l 858 717 l 851 717 l 806 568 b 794 558 804 563 799 558 l 725 558 b 713 568 719 558 714 564 l 671 717 l 665 717 l 632 543 b 618 533 631 538 625 533 z "},"°":{"ha":740,"x_min":0,"x_max":0,"o":"m 422 340 b 713 640 581 340 713 465 b 572 915 713 760 667 821 b 311 1051 479 1008 418 1051 b 28 751 154 1051 28 925 b 167 468 28 611 83 550 b 422 340 247 389 297 340 z m 311 521 b 97 751 192 521 97 615 b 311 982 97 888 192 982 b 532 751 432 982 532 888 b 311 521 532 615 432 521 z m 315 667 b 392 750 363 667 392 704 b 315 826 392 797 357 826 b 238 750 272 826 238 797 b 315 667 238 704 268 667 z "},"+":{"ha":1042,"x_min":0,"x_max":0,"o":"m 497 -110 l 671 -94 b 768 21 729 -89 768 -46 l 768 153 l 903 157 b 1000 258 960 158 1000 197 l 999 417 b 925 560 999 475 982 501 b 793 626 865 621 850 629 l 768 625 l 768 657 b 699 803 768 722 756 746 b 551 872 642 861 613 878 l 369 856 b 274 750 311 850 274 810 l 274 613 l 135 608 b 42 515 79 607 40 569 l 46 346 b 119 217 47 297 67 269 b 256 138 178 160 208 138 l 274 138 l 274 110 b 343 -28 274 56 285 33 b 497 -110 417 -106 439 -115 z m 554 86 l 379 71 b 343 110 354 68 343 81 l 343 324 l 143 318 b 115 347 124 318 115 328 l 111 517 b 136 539 111 532 119 539 l 343 544 l 343 750 b 375 786 343 774 353 785 l 557 803 b 588 768 578 804 588 793 l 588 551 l 794 557 b 818 528 811 557 818 547 l 819 369 b 790 338 819 347 810 338 l 588 332 l 588 132 b 554 86 588 101 576 88 z "},"×":{"ha":1033,"x_min":0,"x_max":0,"o":"m 358 -21 b 492 -15 404 -60 453 -54 l 581 71 l 676 -19 b 826 -15 721 -61 778 -58 l 938 94 b 939 235 979 136 982 194 l 847 319 b 842 331 846 324 843 326 l 940 429 b 940 592 990 479 990 549 b 685 806 828 689 760 744 b 540 792 640 842 583 833 l 449 703 l 351 794 b 213 790 308 835 253 831 l 101 676 b 100 531 58 632 56 572 l 190 446 l 93 350 b 99 194 44 301 42 244 b 358 -21 168 135 238 79 z m 278 136 l 143 247 b 142 300 122 265 122 281 l 290 447 l 149 581 b 150 628 133 596 133 611 l 261 740 b 304 744 276 757 290 757 l 450 606 l 589 743 b 643 751 607 761 626 765 l 781 640 b 781 589 800 625 800 608 l 628 438 l 779 296 b 778 256 793 282 793 269 l 668 147 b 614 142 649 128 631 125 l 468 279 l 332 144 b 278 136 314 126 294 122 z "},"÷":{"ha":1068,"x_min":0,"x_max":0,"o":"m 585 -182 b 776 6 726 -182 776 -128 b 732 151 776 72 765 121 l 917 157 b 1013 258 974 158 1013 200 l 1011 417 b 942 556 1011 475 996 499 b 806 626 879 622 863 629 l 776 625 l 776 649 b 685 860 776 751 768 776 b 479 947 610 935 593 947 b 283 763 331 947 285 888 b 326 613 282 693 294 644 l 149 608 b 56 515 93 607 54 569 l 60 346 b 126 211 61 289 72 265 b 269 138 186 150 211 138 l 285 138 b 283 119 283 132 283 125 b 351 -89 282 11 286 -21 b 585 -182 429 -171 467 -182 z m 474 -1 b 353 118 369 -1 351 21 b 479 235 354 210 375 235 b 596 117 578 235 596 210 b 474 -1 596 21 575 -1 z m 803 338 l 157 318 b 129 347 138 318 129 328 l 125 517 b 150 539 125 532 133 539 l 807 557 b 831 528 824 557 831 547 l 832 369 b 803 338 832 349 822 338 z m 474 642 b 353 761 369 642 351 664 b 479 878 354 853 375 878 b 596 760 578 878 596 853 b 474 642 596 664 575 642 z "},"=":{"ha":1151,"x_min":0,"x_max":0,"o":"m 311 -75 l 957 -56 b 1054 46 1014 -54 1054 -12 l 1053 210 b 960 307 1053 269 1017 307 l 960 311 b 1054 410 1017 317 1054 351 l 1053 574 b 975 706 1053 611 1036 643 b 847 783 915 765 892 785 l 190 765 b 97 672 135 764 96 726 l 101 497 b 183 404 103 446 136 404 l 183 400 b 97 308 132 397 96 361 l 101 133 b 167 8 103 89 110 65 b 311 -75 232 -56 264 -76 z m 844 125 l 199 106 b 171 135 179 106 171 115 l 167 310 b 192 332 167 325 175 332 l 849 350 b 872 321 865 350 872 340 l 874 157 b 844 125 874 136 864 125 z m 844 489 l 199 469 b 171 499 179 469 171 479 l 167 674 b 192 696 167 689 175 696 l 849 714 b 872 685 865 714 872 704 l 874 521 b 844 489 874 500 864 489 z "},"→":{"ha":1186,"x_min":0,"x_max":0,"o":"m 749 -72 l 1064 218 b 1131 353 1104 254 1128 308 b 1128 442 1132 378 1131 413 b 1047 574 1124 497 1089 532 b 617 958 1017 603 786 814 b 454 942 564 1003 497 997 l 365 825 b 382 667 326 774 333 708 l 150 668 b 56 575 93 668 54 628 l 60 392 b 129 265 61 340 72 322 b 274 183 196 199 228 181 l 363 189 b 382 158 367 179 374 168 b 588 -64 444 83 500 21 b 749 -72 638 -111 697 -119 z m 906 381 l 590 90 b 529 93 568 69 547 72 l 435 204 b 442 271 413 229 418 253 l 588 382 l 585 390 l 157 364 b 129 393 143 363 129 369 l 125 576 b 150 599 125 590 132 599 l 585 597 l 588 606 l 432 717 b 421 783 407 735 401 758 l 510 900 b 571 906 528 924 549 925 l 903 617 b 947 547 918 604 944 582 b 950 468 950 518 951 489 b 906 381 949 446 936 408 z "},"←":{"ha":1186,"x_min":0,"x_max":0,"o":"m 233 218 l 549 -72 b 710 -64 600 -119 667 -115 l 804 47 b 806 197 846 96 843 154 l 1024 183 b 1126 281 1078 181 1125 218 l 1131 464 b 1056 586 1132 508 1107 533 b 925 668 990 653 971 668 l 813 668 b 790 714 810 683 800 701 b 621 942 697 842 685 858 b 458 958 579 997 510 1004 l 128 669 b 58 553 96 644 63 608 b 56 464 56 522 54 489 b 122 329 58 419 82 367 l 200 258 b 233 218 210 244 221 231 z m 485 90 l 169 381 b 125 468 139 408 126 446 b 128 547 124 489 125 518 b 172 617 131 582 157 604 l 504 906 b 565 900 526 925 547 924 l 654 783 b 643 717 674 758 668 735 l 488 606 l 490 597 l 925 599 b 950 576 943 599 950 590 l 946 393 b 918 364 946 369 932 363 l 490 390 l 488 382 l 633 271 b 640 204 657 253 663 229 l 546 93 b 485 90 528 72 507 69 z "},"↑":{"ha":1206,"x_min":0,"x_max":0,"o":"m 581 -96 l 764 -92 b 861 11 826 -90 864 -43 l 847 229 b 997 231 890 192 949 189 l 1108 325 b 1117 486 1160 368 1164 435 l 824 801 b 581 979 718 915 649 974 b 492 976 556 981 522 979 b 375 907 436 972 400 939 l 86 576 b 103 414 40 525 44 461 b 331 249 163 365 203 338 b 376 226 346 238 361 229 l 376 110 b 443 -21 376 57 383 42 b 581 -96 506 -86 524 -97 z m 651 89 l 468 85 b 446 110 454 85 446 92 l 447 544 l 439 547 l 328 392 b 261 381 310 367 286 361 l 144 469 b 139 531 121 488 119 508 l 428 863 b 497 907 440 878 463 904 b 576 910 526 910 556 911 b 664 865 599 908 636 896 l 954 550 b 951 489 975 528 972 507 l 840 394 b 774 401 815 372 792 378 l 663 547 l 654 544 l 681 117 b 651 89 682 103 675 89 z "},"↓":{"ha":1204,"x_min":0,"x_max":0,"o":"m 690 -96 b 825 -29 735 -93 789 -69 l 1115 286 b 1107 457 1163 338 1158 413 b 885 653 1021 533 935 610 b 854 672 874 663 864 668 l 860 761 b 763 864 863 815 825 864 l 749 864 l 749 872 b 651 975 749 926 715 974 l 468 979 b 375 885 415 981 375 942 l 376 653 b 218 669 335 701 269 708 l 101 581 b 85 418 46 538 40 471 b 485 -24 214 269 322 142 b 601 -93 513 -51 546 -89 b 690 -96 631 -96 665 -97 z m 575 85 b 496 88 554 83 525 85 b 426 132 461 90 439 117 l 138 464 b 143 525 118 486 119 507 l 260 614 b 326 603 285 633 308 628 l 438 447 l 446 450 l 444 885 b 467 910 444 903 453 910 l 650 906 b 679 878 674 906 681 892 l 653 450 l 661 447 l 772 593 b 839 600 790 617 814 622 l 950 506 b 953 444 971 488 974 467 l 663 129 b 575 85 635 99 597 86 z "}}}
